<svg xmlns="http://www.w3.org/2000/svg" xmlns:xlink="http://www.w3.org/1999/xlink"><defs><path id="a" d="M.931 0h30.137v34H.931z"/></defs><symbol id="archive" viewBox="0 0 19 24"><title>archive@2x</title><g fill="#000" fill-rule="evenodd"><path d="M.011 11.986C.011 9.26 0 6.536.016 3.81.025 2.237.753 1.068 2.207.358c.511-.25 1.064-.349 1.634-.35C6.308.008 8.776.01 11.243.008c.686-.001 1.235.312 1.744.712.254.2.506.405.735.63 1.456 1.433 2.914 2.863 4.352 4.312.625.63.88 1.39.873 2.29-.03 4.07-.006 8.14-.016 12.21-.004 1.597-.738 2.78-2.216 3.492-.503.242-1.049.338-1.61.338-3.755.002-7.51.01-11.266-.002-2.18-.007-3.82-1.632-3.826-3.775-.008-2.743-.002-5.486-.002-8.228zM8.538 1.862c-.082-.013-.126-.026-.17-.026-1.514 0-3.03-.016-4.544.007-1.153.018-1.928.804-1.93 1.937-.005 5.476-.004 10.952 0 16.428.002 1.167.8 1.95 2 1.952 3.718.007 7.437.007 11.156-.006a2.26 2.26 0 0 0 .917-.19c.777-.362 1.09-1.007 1.089-1.834-.006-3.875-.003-7.75-.004-11.624 0-.106-.008-.212-.013-.318-.018-.318-.188-.548-.485-.643a3.031 3.031 0 0 0-.848-.152c-1.07-.021-2.14-.015-3.21-.02-.771-.002-1.117-.335-1.119-1.08-.003-1.027.004-2.053-.012-3.079a3.842 3.842 0 0 0-.117-.837.677.677 0 0 0-.474-.508c-.227-.068-.383-.097-.371.238.017.522.015 1.044-.001 1.566-.018.557-.404.918-.949.918-.497 0-.877-.369-.908-.905-.018-.3-.006-.601-.007-.902v-.922z"/><path d="M8.539 11.892c0-.198-.006-.471.001-.745.016-.597.385-.966.955-.964.523.002.889.381.91.957.01.273.001.547.001.837.105.029.2.05.29.08.355.121.602.354.631.724.031.395.03.796-.001 1.191a.833.833 0 0 1-.219.469c-.132.14-.114.24-.047.392.457 1.052.858 2.124 1.042 3.257.18 1.11-.21 2.021-1.177 2.633-.945.598-1.951.6-2.899.004-.969-.61-1.362-1.52-1.184-2.63.184-1.141.588-2.222 1.052-3.28.065-.149.095-.262-.06-.363-.006-.005-.012-.013-.018-.02-.321-.375-.352-1.717-.008-2.071.176-.182.437-.287.73-.47zm.924 8.137c.851.004 1.543-.666 1.54-1.493-.001-.81-.69-1.485-1.52-1.49-.842-.006-1.544.676-1.542 1.497.002.817.683 1.481 1.522 1.486zM10.405 7.42c0 .291.011.583-.003.874-.026.55-.406.91-.951.914-.484.004-.887-.377-.904-.905-.02-.626-.02-1.254.004-1.88.018-.505.409-.848.916-.858.487-.009.88.326.921.824.028.341.005.687.005 1.031h.012z"/></g></symbol><symbol id="bell" viewBox="0 0 34 34"><title>Artboard 2</title><g fill="none" fill-rule="evenodd"><mask id="b" fill="#fff"><use xlink:href="#a"/></mask><path d="M30.634 28c-2.88-2.864-4.341-6.251-4.341-10.072v-5.56c.026-4.238-2.825-7.052-5.273-8.168a12.072 12.072 0 0 0-2.162-.752v-.357A3.094 3.094 0 0 0 15.767 0a3.096 3.096 0 0 0-3.091 3.091v.408a12.66 12.66 0 0 0-1.944.703C8.026 5.451 5.285 8.458 5.26 12.364v5.562c0 3.948-1.395 7.339-4.147 10.071a.622.622 0 0 0 .332 1.051l5.868 1.008c1.093.193 2.099.347 3.055.472 1.08 2.118 3.2 3.473 5.516 3.473 2.313 0 4.434-1.358 5.512-3.473a85.164 85.164 0 0 0 3.043-.469l5.864-1.011a.623.623 0 0 0 .486-.427.623.623 0 0 0-.155-.621zM13.915 3.091a1.854 1.854 0 0 1 3.709 0v.112a12.279 12.279 0 0 0-3.711.03v-.142h.002zm1.968 29.672c-1.567 0-3.027-.777-3.97-2.049a37.27 37.27 0 0 0 3.96.216c1.294 0 2.59-.07 3.975-.216-.939 1.271-2.404 2.049-3.965 2.049zm8.342-3.922c-1.186.203-2.272.37-3.303.503h-.002c-.453.057-.894.104-1.322.149h-.016c-.393.038-.779.072-1.159.101-.072.006-.146.01-.218.014a36.534 36.534 0 0 1-1.179.063 36.65 36.65 0 0 1-2.297 0 6.339 6.339 0 0 0-.204-.01c-.32-.013-.644-.03-.969-.053a48.91 48.91 0 0 1-1.359-.111c-.014 0-.025-.004-.038-.004a68.147 68.147 0 0 1-1.315-.149h-.007a73.335 73.335 0 0 1-3.313-.503l-4.738-.817c2.464-2.817 3.71-6.204 3.71-10.098v-5.56c.021-3.358 2.404-5.955 4.755-7.041.7-.319 1.425-.562 2.164-.73.006 0 .012 0 .018-.004a11.267 11.267 0 0 1 4.687-.039l.022-.002c.807.169 1.6.423 2.367.773 2.278 1.044 4.57 3.622 4.549 7.041v5.563c0 3.731 1.346 7.2 3.902 10.096l-4.735.818z" fill="#000" mask="url(#b)"/><path d="M19.733 7.009c-2.394-1.096-5.327-1.096-7.706 0-1.358.628-3.658 2.457-3.677 5.352a.617.617 0 0 0 .613.622h.002a.617.617 0 0 0 .619-.616c.015-2.274 1.865-3.731 2.958-4.234 2.061-.947 4.602-.947 6.678 0a.615.615 0 0 0 .817-.305.616.616 0 0 0-.304-.819z" fill="#000" mask="url(#b)"/></g></symbol><symbol id="calendar" viewBox="0 0 34 34"><title>Artboard 16</title><g fill="#000" fill-rule="evenodd"><path d="M32.446 2.684h-3.875V1.007a.556.556 0 0 0-.553-.56h-3.875a.555.555 0 0 0-.554.56v1.677H11.411V1.007a.557.557 0 0 0-.554-.56H6.982a.556.556 0 0 0-.553.56v1.677H2.554a.556.556 0 0 0-.554.56V33.44c0 .31.247.559.554.559h29.892c.307 0 .554-.25.554-.558V3.243a.556.556 0 0 0-.554-.559zm-7.75-1.118h2.768V4.92h-2.768V1.566zm-17.16 0h2.768V4.92H7.536V1.566zM3.107 3.803H6.43V5.48c0 .31.247.56.553.56h3.875c.307 0 .554-.25.554-.56V3.803h12.178V5.48c0 .31.247.56.554.56h3.875c.306 0 .553-.25.553-.56V3.803h3.322v5.033H3.107V3.803zm0 29.08V9.952h28.786v22.929H3.107z"/><path d="M21.929 13.31H6.982v16.216h21.036V13.31h-6.089zm-3.875 1.118h3.875v3.914h-3.875v-3.914zm3.875 8.948h-3.875V19.46h3.875v3.915zM13.07 19.46h3.875v3.915h-3.875V19.46zm0-5.033h3.875v3.914h-3.875v-3.914zm-4.982 0h3.875v3.914H8.09v-3.914zm0 5.033h3.875v3.915H8.09V19.46zm3.875 8.948H8.09v-3.916h3.875v3.916zm4.982 0h-3.875v-3.916h3.875v3.916zm4.983 0h-3.875v-3.916h3.875v3.916zm4.982 0h-3.875v-3.916h3.875v3.916zm0-5.033h-3.875V19.46h3.875v3.915zm0-8.948v3.914h-3.875v-3.914h3.875z"/></g></symbol><symbol id="heart" viewBox="0 0 34 34"><title>Artboard 8</title><g fill="#000" fill-rule="evenodd"><path d="M25.052 2.935c-2.354 0-3.952.983-5.494 2.571l-2.12 2.173a.522.522 0 0 1-.754 0s-2.115-2.178-2.12-2.173c-1.542-1.588-3.141-2.571-5.495-2.571-4.707 0-8.524 3.93-8.524 8.779 0 1.83.546 3.531 1.478 4.938 0 0 .391.639.852 1.114.462.476 12.679 12.51 12.679 12.51.416.428.961.643 1.506.643s1.091-.215 1.507-.643c0 0 12.216-12.033 12.678-12.51a7.451 7.451 0 0 0 .853-1.114 8.918 8.918 0 0 0 1.477-4.938c.001-4.849-3.814-8.78-8.523-8.78zm5.708 13.704s-.326.411-.971 1.076C29.144 18.38 17.814 29.5 17.814 29.5a1.046 1.046 0 0 1-1.508 0S4.976 18.38 4.332 17.715a16.028 16.028 0 0 1-.972-1.076 7.766 7.766 0 0 1-1.75-4.926c0-4.243 3.34-7.682 7.458-7.682 2.06 0 3.392.86 4.742 2.25l.005-.004 2.492 2.566c.417.428 1.091.428 1.507 0l2.492-2.566.005.004c1.349-1.39 2.68-2.25 4.741-2.25 4.12 0 7.459 3.44 7.459 7.682 0 1.88-.663 3.592-1.75 4.926z"/><path d="M25.052 6.227a.54.54 0 0 0-.532.548.54.54 0 0 0 .532.548c2.354 0 4.262 1.966 4.262 4.39a.54.54 0 0 0 .532.548.54.54 0 0 0 .533-.548c.001-3.028-2.384-5.486-5.327-5.486z"/></g></symbol><symbol id="list-big" viewBox="0 0 24 24"><title>Artboard 12</title><path d="M1 14.526h5.175V9.474H1v5.052zm0 6.319h5.175V15.79H1v5.055zM1 8.21h5.175V3.155H1V8.21zm6.47 6.316H23V9.474H7.47v5.052zm0 6.319H23V15.79H7.47v5.055zm0-17.69V8.21H23V3.155H7.47z" fill="#1D1D1B" fill-rule="evenodd"/></symbol><symbol id="list-small" viewBox="0 0 24 24"><title>Artboard 13</title><g fill="#1D1D1B" fill-rule="evenodd"><path d="M21.903 19.376H7.191a1.09 1.09 0 0 1-1.097-1.082c0-.599.49-1.084 1.097-1.084h14.712A1.09 1.09 0 0 1 23 18.294a1.09 1.09 0 0 1-1.097 1.082zM21.903 12.583H7.191A1.088 1.088 0 0 1 6.094 11.5c0-.598.49-1.082 1.097-1.082h14.712A1.09 1.09 0 0 1 23 11.5a1.09 1.09 0 0 1-1.097 1.083zM21.903 5.79H7.191a1.089 1.089 0 0 1-1.097-1.082c0-.6.49-1.084 1.097-1.084h14.712A1.09 1.09 0 0 1 23 4.708a1.09 1.09 0 0 1-1.097 1.081zM3.948 4.79c0 .804-.659 1.453-1.474 1.453A1.462 1.462 0 0 1 1 4.79c0-.803.659-1.453 1.474-1.453s1.474.65 1.474 1.453zM3.948 11.5c0 .803-.659 1.453-1.474 1.453S1 12.303 1 11.5c0-.801.659-1.454 1.474-1.454s1.474.653 1.474 1.454zM3.948 18.21c0 .802-.659 1.453-1.474 1.453S1 19.013 1 18.21s.659-1.454 1.474-1.454 1.474.651 1.474 1.454z"/></g></symbol><symbol id="paper-plane" viewBox="0 0 34 34"><title>Artboard 4</title><path d="M33.373 2.048C32.819 1.333 31.96.923 31.016.923c-.61 0-1.241.168-1.88.498L2.032 15.451C.103 16.449-.03 17.954.004 18.555c.03.603.325 2.082 2.344 2.874l3.466 1.353a6.016 6.016 0 0 0 2.183.388c.125 0 .246-.015.369-.023-.047.062-.105.106-.146.172-.647.952-.68 2.245-.095 3.636 1.053 2.304 2.192 4.833 2.33 5.185a2.328 2.328 0 0 0 2.152 1.477c1.463 0 1.897-.694 4.287-4.54.187-.283.6-.94.672-1.771l.767.303 3.838 1.545c.769.309 1.443.582 1.798.727a2.241 2.241 0 0 0 1.195.334c1.747 0 2.163-1.493 2.388-2.294.11-.397.263-.943.426-1.548l5.857-21.231c.44-1.6-.102-2.626-.462-3.094zM14.96 27.868s-2.172 3.49-2.355 3.49c-.224-.574-2.37-5.266-2.37-5.266-.395-.94-.324-1.748.357-1.748.149 0 .327.04.538.126l1.665.855c.278.188.58.351.915.48l.083.033.159.076c1.287.674 1.696.914 1.008 1.954zM31.627 4.55l-5.852 21.232c-.33 1.197-.605 2.176-.611 2.176-.013-.037-.966-.423-2.133-.893l-3.84-1.544a359.654 359.654 0 0 0-4.25-1.664l-.195-.077-.716-.368c-.71-.54-.773-1.424-.06-2.176l11.88-12.56c.478-.503.657-.763.554-.763-.082 0-.347.168-.788.509l-15.03 11.707c-.655.504-1.65.787-2.587.787a3.72 3.72 0 0 1-1.344-.231l-3.461-1.351c-1.17-.458-1.213-1.301-.1-1.881L30.2 3.42c.315-.162.588-.237.816-.237.583 0 .848.504.61 1.366z" fill="#010002" fill-rule="evenodd"/></symbol><symbol id="pencil" viewBox="0 0 16 16"><title>Artboard 15</title><path d="M15.266 4.014c.008.521-.196.956-.558 1.317-2.88 2.886-5.762 5.772-8.648 8.651a.984.984 0 0 1-.415.239c-1.49.431-2.98.855-4.475 1.27-.652.181-1.042-.229-.859-.885.409-1.464.816-2.929 1.239-4.389.058-.195.169-.4.313-.544 2.847-2.861 5.701-5.716 8.558-8.569.784-.785 1.878-.787 2.673-.007.541.529 1.074 1.066 1.604 1.605.396.406.567.815.568 1.312zM3.158 10.191l2.409 2.422 6.369-6.35a5478.25 5478.25 0 0 1-2.414-2.416l-6.364 6.344zm7.264-7.318l2.5 2.485c.287-.292.601-.6.901-.92.26-.276.273-.549.017-.815a70.993 70.993 0 0 0-1.691-1.692c-.243-.235-.525-.233-.771-.005-.336.311-.652.644-.956.947zm-7.934 8.599l-.712 2.545c.894-.254 1.717-.485 2.551-.721l-1.839-1.824z" fill="#000" fill-rule="evenodd"/></symbol><symbol id="plus" viewBox="0 0 22 22"><title>Artboard 19</title><path d="M22 9.5v3c0 .417-.146.77-.438 1.063A1.447 1.447 0 0 1 20.5 14H14v6.5c0 .417-.146.77-.438 1.063A1.447 1.447 0 0 1 12.5 22h-3c-.417 0-.77-.146-1.063-.438A1.447 1.447 0 0 1 8 20.5V14H1.5c-.417 0-.77-.146-1.063-.438A1.447 1.447 0 0 1 0 12.5v-3c0-.417.146-.77.438-1.063A1.447 1.447 0 0 1 1.5 8H8V1.5c0-.417.146-.77.438-1.063A1.447 1.447 0 0 1 9.5 0h3c.417 0 .77.146 1.063.438.291.291.437.645.437 1.062V8h6.5c.417 0 .77.146 1.063.438.291.291.437.645.437 1.062z" fill="#000" fill-rule="evenodd"/></symbol><symbol id="question" viewBox="0 0 34 34"><title>Artboard 9</title><g fill="#000" fill-rule="evenodd"><circle cx="16.988" cy="26.755" r="1.063"/><path d="M16.752 7.108c-3.33 0-5.399 2.069-5.399 5.399a.53.53 0 1 0 1.063 0c0-2.756 1.58-4.336 4.336-4.336 4.184 0 4.809 3.013 4.809 4.809 0 1.747-1.436 3.734-3.34 4.622-2.154 1.005-1.777 4.531-1.76 4.68a.53.53 0 1 0 1.055-.12c-.003-.029-.29-2.922 1.155-3.597 2.29-1.068 3.952-3.418 3.952-5.585 0-3.677-2.195-5.872-5.871-5.872z"/><path d="M17 0C7.611 0 0 7.611 0 17s7.611 17 17 17 17-7.611 17-17S26.389 0 17 0zm0 32.938c-8.788 0-15.938-7.15-15.938-15.938S8.213 1.062 17 1.062 32.938 8.213 32.938 17 25.788 32.938 17 32.938z"/></g></symbol><symbol id="refresh" viewBox="0 0 34 34"><title>Artboard</title><g fill="#000" fill-rule="evenodd"><path d="M17 0a.692.692 0 0 0 0 1.383c8.592 0 15.58 7.006 15.58 15.616 0 8.612-6.987 15.616-15.58 15.616-8.588 0-15.578-7.004-15.578-15.616A15.58 15.58 0 0 1 9.841 3.126a.694.694 0 0 0 .294-.933.688.688 0 0 0-.93-.295 16.955 16.955 0 0 0-9.166 15.1C.041 26.374 7.65 34 17 34c9.352 0 16.959-7.626 16.959-17.001C33.959 7.626 26.352 0 17 0z"/><path d="M23.649 8.242A10.868 10.868 0 0 0 17 5.995c-6.052 0-10.977 4.936-10.977 11.004S10.948 28.005 17 28.005c2.932 0 5.69-1.145 7.762-3.225a.687.687 0 0 0 0-.976.685.685 0 0 0-.974 0 9.539 9.539 0 0 1-6.789 2.817c-5.291 0-9.597-4.315-9.597-9.623 0-5.304 4.304-9.62 9.597-9.62 4.244 0 8.036 2.849 9.22 6.931a.688.688 0 1 0 1.323-.386 11.077 11.077 0 0 0-3.893-5.681z"/><path d="M25.091 14.906a.691.691 0 0 0-.973.979l2.597 2.604a.687.687 0 0 0 .975 0l2.597-2.604a.691.691 0 1 0-.976-.979l-2.107 2.114-2.113-2.114z"/></g></symbol><symbol id="rounded-check" viewBox="0 0 34 34"><path d="M13.656 24.437L26.405 11.61l-.749-.79-12.374 12.359-5.999-6.014-.753.825 6.374 6.447z"/><path d="M16.999 34c4.546 0 8.813-1.77 12.021-4.979A16.882 16.882 0 0 0 34 17c0-4.539-1.772-8.812-4.98-12.021A16.883 16.883 0 0 0 16.999 0C12.458 0 8.188 1.77 4.978 4.979A16.897 16.897 0 0 0 0 17a16.89 16.89 0 0 0 4.979 12.023A16.897 16.897 0 0 0 16.999 34zM5.729 5.73a15.835 15.835 0 0 1 11.27-4.668c4.258 0 8.263 1.658 11.271 4.668A15.83 15.83 0 0 1 32.935 17c0 4.258-1.654 8.259-4.665 11.271a15.825 15.825 0 0 1-11.271 4.666 15.82 15.82 0 0 1-11.27-4.666A15.812 15.812 0 0 1 1.064 17 15.83 15.83 0 0 1 5.729 5.73z"/></symbol><symbol id="settings" viewBox="0 0 34 34"><title>Artboard 6</title><g fill="#000" fill-rule="evenodd"><path d="M17.06 9.822a7.226 7.226 0 0 0-7.224 7.23 7.226 7.226 0 0 0 7.224 7.229 7.226 7.226 0 0 0 7.225-7.23 7.225 7.225 0 0 0-7.225-7.229zm0 13.425a6.194 6.194 0 0 1-6.192-6.196 6.194 6.194 0 0 1 6.192-6.195 6.194 6.194 0 0 1 6.192 6.195 6.193 6.193 0 0 1-6.192 6.196z"/><path d="M31.51 12.92H28.74c-.146-.415-.312-.82-.5-1.212l1.96-1.96a2.068 2.068 0 0 0-.001-2.922l-2.92-2.92a2.063 2.063 0 0 0-2.918 0l-1.96 1.96a12.558 12.558 0 0 0-1.21-.5V2.592A2.067 2.067 0 0 0 19.125.527h-4.13c-1.139 0-2.063.924-2.063 2.066v2.774c-.413.146-.817.312-1.21.5l-1.96-1.96a2.064 2.064 0 0 0-2.918.001L3.924 6.83a2.066 2.066 0 0 0 0 2.921l1.96 1.96c-.188.393-.354.798-.5 1.212H2.612a2.064 2.064 0 0 0-2.064 2.064v4.13c0 1.141.924 2.066 2.064 2.066h2.772c.145.415.311.82.5 1.212l-1.96 1.96a2.068 2.068 0 0 0 0 2.922l2.92 2.92a2.063 2.063 0 0 0 2.918 0l1.96-1.96c.393.187.797.353 1.21.5v2.774a2.067 2.067 0 0 0 2.065 2.065h4.128c1.14 0 2.065-.924 2.065-2.066v-2.774c.413-.146.817-.312 1.21-.5l1.959 1.96a2.064 2.064 0 0 0 2.919-.001l2.919-2.921a2.066 2.066 0 0 0 0-2.921l-1.96-1.96c.188-.393.354-.798.5-1.212h2.771c1.14 0 2.065-.925 2.065-2.065v-4.13a2.062 2.062 0 0 0-2.063-2.065zm1.032 6.197c0 .57-.463 1.032-1.033 1.032h-3.096c-.451 0-.534.35-.591.522a10.992 10.992 0 0 1-.364.941c-.069.159-.141.314-.217.468-.085.17-.274.5.142.917l2.085 2.087a1.032 1.032 0 0 1 0 1.46l-2.919 2.921a1.033 1.033 0 0 1-1.46.001l-2.098-2.099c-.456-.456-.693-.235-.843-.16a11.06 11.06 0 0 1-1.44.601c-.182.061-.55.086-.55.602v3.1a1.033 1.033 0 0 1-1.033 1.032h-4.128a1.033 1.033 0 0 1-1.033-1.033V28.41c0-.508-.306-.521-.456-.57a11.547 11.547 0 0 1-1.498-.616c-.163-.08-.459-.277-.899.163l-2.078 2.08a1.032 1.032 0 0 1-1.459 0l-2.919-2.922a1.035 1.035 0 0 1 0-1.46l2.085-2.088c.383-.384.252-.697.178-.844a10.563 10.563 0 0 1-.433-.972 11.415 11.415 0 0 1-.185-.51c-.059-.173-.141-.523-.592-.523H2.612c-.57 0-1.032-.462-1.032-1.032v-4.13c0-.571.462-1.033 1.032-1.033h3.096c.452 0 .534-.35.592-.522a10.992 10.992 0 0 1 .363-.941c.069-.159.142-.314.218-.468.084-.17.274-.5-.142-.917L4.653 9.018a1.032 1.032 0 0 1 0-1.46l2.92-2.92a1.033 1.033 0 0 1 1.46-.001l2.098 2.099c.455.455.692.235.843.16a11.06 11.06 0 0 1 1.44-.601c.181-.061.55-.086.55-.602v-3.1a1.033 1.033 0 0 1 1.032-1.032h4.129c.57.001 1.032.462 1.032 1.033v3.099c0 .508.306.521.457.57a11.547 11.547 0 0 1 1.498.616c.163.08.458.277.897-.164l2.078-2.08a1.032 1.032 0 0 1 1.46 0l2.918 2.922c.404.404.404 1.058.001 1.46 0 0-1.704 1.705-2.085 2.088-.383.384-.253.697-.178.844a11.457 11.457 0 0 1 .618 1.483c.058.172.14.522.591.522h3.096c.57 0 1.033.462 1.033 1.032v4.13z"/></g></symbol><symbol id="simple-check" viewBox="0 0 16 16"><title>Artboard 17</title><path d="M16 4.343c0 .27-.096.499-.289.687l-7.474 7.313-1.403 1.374a.966.966 0 0 1-.702.283.966.966 0 0 1-.702-.283l-1.404-1.374L.289 8.687A.925.925 0 0 1 0 8c0-.27.096-.498.289-.687L1.693 5.94a.966.966 0 0 1 .702-.282c.275 0 .51.094.702.282l3.035 2.98 6.771-6.636A.966.966 0 0 1 13.605 2c.275 0 .51.094.702.283l1.404 1.374a.925.925 0 0 1 .289.686z" fill="#000" fill-rule="evenodd"/></symbol><symbol id="small-check" viewBox="0 0 22 22"><title>Artboard 14</title><g fill="#000" fill-rule="evenodd"><path d="M8.81 15.57l7.413-7.458-.435-.46-7.198 7.184-3.487-3.493-.438.48 3.708 3.747z"/><path d="M9.033 16.107h-.884l-4.223-4.27 1.16-1.271 3.506 3.513 7.206-7.195 1.173 1.236z"/><g><path d="M10.753 21.13a9.825 9.825 0 0 0 6.992-2.895 9.82 9.82 0 0 0 2.896-6.99c0-2.64-1.03-5.12-2.897-6.989a9.816 9.816 0 0 0-6.99-2.894 9.82 9.82 0 0 0-6.99 2.894 9.82 9.82 0 0 0-2.894 6.99 9.815 9.815 0 0 0 2.894 6.987 9.815 9.815 0 0 0 6.99 2.897zM4.201 4.694a9.202 9.202 0 0 1 6.552-2.714h.002c2.473 0 4.802.965 6.55 2.714a9.198 9.198 0 0 1 2.716 6.553 9.198 9.198 0 0 1-2.715 6.552 9.196 9.196 0 0 1-6.553 2.715A9.2 9.2 0 0 1 4.201 17.8a9.2 9.2 0 0 1-2.714-6.551c0-2.477.963-4.804 2.714-6.554z"/><path d="M10.755 21.668a10.356 10.356 0 0 1-7.37-3.054 10.347 10.347 0 0 1-3.053-7.367c0-2.784 1.084-5.4 3.053-7.37A10.348 10.348 0 0 1 10.752.827c2.786 0 5.403 1.083 7.37 3.052a10.353 10.353 0 0 1 3.052 7.367c0 2.786-1.083 5.402-3.052 7.368a10.35 10.35 0 0 1-7.367 3.055zm0-19.153A8.673 8.673 0 0 0 4.58 5.073a8.673 8.673 0 0 0-2.558 6.174 8.67 8.67 0 0 0 2.556 6.172 8.672 8.672 0 0 0 6.174 2.557 8.67 8.67 0 0 0 6.175-2.557 8.666 8.666 0 0 0 2.557-6.174 8.663 8.663 0 0 0-2.557-6.172 8.672 8.672 0 0 0-6.173-2.558z"/></g></g></symbol><symbol id="small-rounded-check" viewBox="0 0 34 34"><path d="M13.656 24.437L26.405 11.61l-.749-.79-12.374 12.359-5.999-6.014-.753.825 6.374 6.447z"/><path d="M16.999 34c4.546 0 8.813-1.77 12.021-4.979A16.882 16.882 0 0 0 34 17c0-4.539-1.772-8.812-4.98-12.021A16.883 16.883 0 0 0 16.999 0C12.458 0 8.188 1.77 4.978 4.979A16.897 16.897 0 0 0 0 17a16.89 16.89 0 0 0 4.979 12.023A16.897 16.897 0 0 0 16.999 34zM5.729 5.73a15.835 15.835 0 0 1 11.27-4.668c4.258 0 8.263 1.658 11.271 4.668A15.83 15.83 0 0 1 32.935 17c0 4.258-1.654 8.259-4.665 11.271a15.825 15.825 0 0 1-11.271 4.666 15.82 15.82 0 0 1-11.27-4.666A15.812 15.812 0 0 1 1.064 17 15.83 15.83 0 0 1 5.729 5.73z"/></symbol><symbol id="small-search" viewBox="0 0 16 16"><title>Artboard 11</title><path d="M11.077 6.77c0-1.187-.422-2.201-1.264-3.044-.843-.843-1.858-1.264-3.044-1.264s-2.2.421-3.043 1.264-1.264 1.857-1.264 3.043c0 1.186.421 2.2 1.264 3.043s1.857 1.265 3.043 1.265c1.186 0 2.2-.422 3.043-1.264.843-.843 1.265-1.858 1.265-3.044zm4.923 8c0 .333-.122.621-.365.865a1.183 1.183 0 0 1-.866.365c-.346 0-.634-.122-.865-.365l-3.298-3.289a6.584 6.584 0 0 1-3.837 1.192 6.652 6.652 0 0 1-2.63-.533 6.768 6.768 0 0 1-2.163-1.443A6.768 6.768 0 0 1 .534 9.4 6.652 6.652 0 0 1 0 6.769c0-.916.178-1.793.534-2.63a6.768 6.768 0 0 1 1.442-2.163A6.768 6.768 0 0 1 4.139.534 6.652 6.652 0 0 1 6.77 0c.917 0 1.793.178 2.63.534a6.768 6.768 0 0 1 2.164 1.442 6.768 6.768 0 0 1 1.442 2.163c.356.837.533 1.714.533 2.63 0 1.41-.397 2.69-1.192 3.837l3.298 3.298c.237.237.356.525.356.865z" fill="#000" fill-rule="evenodd"/></symbol><symbol id="small-settings" viewBox="0 0 24 24"><title>Artboard 10</title><g fill="#1D1D1B" fill-rule="evenodd"><path d="M23.332 10.2l-1.35-.26a2.055 2.055 0 0 1-1.538-1.277 2.048 2.048 0 0 1 .26-1.98l.846-1.156a.706.706 0 0 0-.072-.922l-1.83-1.832a.721.721 0 0 0-.896-.083l-1.138.77a2.076 2.076 0 0 1-1.991.183 2.06 2.06 0 0 1-1.22-1.583L14.186.64a.707.707 0 0 0-.7-.598h-2.588a.713.713 0 0 0-.698.574l-.336 1.746a2.057 2.057 0 0 1-1.24 1.522c-.64.265-1.383.19-1.954-.198L5.2 2.692a.718.718 0 0 0-.899.084l-1.83 1.829a.71.71 0 0 0-.072.921l.848 1.157c.421.573.518 1.315.258 1.982A2.059 2.059 0 0 1 1.967 9.94l-1.349.26a.709.709 0 0 0-.575.697v2.587c0 .351.252.646.601.7l1.417.217c.707.11 1.3.566 1.583 1.22.286.655.217 1.4-.183 1.99L2.69 18.75a.71.71 0 0 0 .087.899l1.831 1.834a.727.727 0 0 0 .92.067l1.154-.845a2.087 2.087 0 0 1 1.982-.26c.666.26 1.143.835 1.277 1.538l.259 1.35a.71.71 0 0 0 .698.574h2.587a.71.71 0 0 0 .7-.599l.154-.997a2.053 2.053 0 0 1 1.254-1.6 2.076 2.076 0 0 1 2.017.244l.813.596a.705.705 0 0 0 .922-.07l1.829-1.831c.24-.24.276-.62.084-.898l-.77-1.138a2.059 2.059 0 0 1-.181-1.991 2.05 2.05 0 0 1 1.583-1.22l1.417-.217c.348-.054.6-.35.6-.7v-2.588a.712.712 0 0 0-.575-.698zm-4.324 4.858a3.472 3.472 0 0 0 .308 3.35l.444.654-.988.987-.323-.236a3.491 3.491 0 0 0-3.398-.41 3.453 3.453 0 0 0-2.109 2.694l-.061.396h-1.398l-.15-.778a3.462 3.462 0 0 0-2.151-2.587 3.496 3.496 0 0 0-3.335.432l-.667.49-.988-.986.443-.656c.675-.995.791-2.248.31-3.348a3.472 3.472 0 0 0-2.669-2.055l-.815-.124v-1.398l.775-.148a3.475 3.475 0 0 0 2.591-2.153 3.476 3.476 0 0 0-.435-3.335l-.489-.666.989-.988.983.666c.966.652 2.217.78 3.292.334a3.485 3.485 0 0 0 2.09-2.563l.225-1.17h1.398l.123.815a3.478 3.478 0 0 0 2.054 2.67 3.513 3.513 0 0 0 3.351-.31l.654-.444.987.987-.49.667a3.466 3.466 0 0 0-.432 3.336 3.464 3.464 0 0 0 2.587 2.153l.777.148v1.398l-.818.123a3.464 3.464 0 0 0-2.665 2.055z"/><path d="M12.192 7.383a4.813 4.813 0 0 0-4.808 4.808 4.813 4.813 0 0 0 4.808 4.808A4.813 4.813 0 0 0 17 12.19a4.813 4.813 0 0 0-4.808-4.808zm0 8.201a3.398 3.398 0 0 1-3.394-3.392 3.398 3.398 0 0 1 3.394-3.394 3.397 3.397 0 0 1 3.392 3.394 3.397 3.397 0 0 1-3.392 3.392z"/><path d="M12.192 9.54a2.655 2.655 0 0 0-2.651 2.652 2.65 2.65 0 1 0 2.651-2.651zm0 3.886a1.236 1.236 0 0 1 0-2.47 1.236 1.236 0 0 1 0 2.47z"/></g></symbol><symbol id="tag" viewBox="0 0 34 34"><title>Artboard 7</title><g fill="#000" fill-rule="evenodd"><path d="M32.988 19.68l-7.477-7.478.006.006a9.303 9.303 0 0 0 .33-2.428A9.294 9.294 0 0 0 16.555.486c-.859 0-1.686.126-2.475.344a2.072 2.072 0 0 0-1.14-.344H2.613A2.065 2.065 0 0 0 .548 2.55v10.327c0 .547.218 1.074.605 1.46l18.59 18.589c.402.403.93.605 1.46.605.528 0 1.057-.202 1.46-.605L32.99 22.599a2.065 2.065 0 0 0-.002-2.92zM16.553 1.52c4.563 0 8.262 3.699 8.262 8.261 0 .518-.06 1.079-.151 1.574l-.915-.914-.012-.014c.02-.206.046-.45.046-.647a7.228 7.228 0 0 0-7.229-7.228 7.18 7.18 0 0 0-1.894.26 7.226 7.226 0 0 0-4.3 3.257 7.08 7.08 0 0 0-.475.923 7.2 7.2 0 0 0-.56 2.79c0 .318.068.938.068.938s-.38.093-.584.093a2.04 2.04 0 0 1-.453-.053c-.017-.004-.02-.004 0 0a8.344 8.344 0 0 1-.063-.98 8.225 8.225 0 0 1 1.081-4.077 8.275 8.275 0 0 1 4.461-3.716c.371-.13.753-.238 1.146-.314a8.292 8.292 0 0 1 1.572-.154zm6.178 7.903l-5.82-5.82a6.187 6.187 0 0 1 5.82 5.82zm-11.857-.675c0 .512-.191.973-.501 1.332-.005-.1-.015-.198-.015-.299 0-.67.11-1.316.308-1.922.13.269.208.57.208.889zM7.26 9.78c0 .11.012.216.017.324a2.021 2.021 0 0 1-.532-1.357c0-.722.37-1.355.932-1.725A9.237 9.237 0 0 0 7.26 9.78zm24.998 12.09L21.93 32.197a1.023 1.023 0 0 1-.73.303c-.275 0-.534-.108-.73-.303L1.883 13.607a1.043 1.043 0 0 1-.302-.729V2.552c0-.57.463-1.033 1.032-1.033h9.697a9.322 9.322 0 0 0-4.1 4.191 3.098 3.098 0 1 0 2.952 1.027 6.192 6.192 0 0 1 4.363-3.06L32.257 20.41a1.028 1.028 0 0 1 0 1.46z"/><path d="M26.427 19.938a1.557 1.557 0 0 0-2.19-.001l-4.124 4.1c-.604.6-.625 1.6-.02 2.2.602.6 1.604.582 2.208-.018l4.127-4.103h-.001c.603-.6.603-1.578 0-2.178zm-.73 1.452l-4.11 4.088c-.203.2-.564.235-.765.034-.202-.201-.176-.552.026-.752l4.118-4.096a.517.517 0 0 1 .73 0c.201.2.201.526 0 .726zM22.296 18.008c.604-.6.604-1.578.001-2.179a1.557 1.557 0 0 0-2.19 0l-4.123 4.1c-.604.6-.626 1.6-.021 2.2.603.6 1.604.582 2.209-.018l4.126-4.104h-.002v.001zm-.73-.725l-4.11 4.087c-.202.202-.564.236-.765.034-.202-.2-.176-.551.026-.751l4.118-4.096a.517.517 0 0 1 .73 0 .51.51 0 0 1 0 .726zM18.163 13.898c.604-.6.604-1.578 0-2.179a1.557 1.557 0 0 0-2.19 0l-4.123 4.1c-.604.6-.625 1.6-.02 2.2.602.6 1.604.582 2.208-.018l4.127-4.104h-.002v.001zm-.73-.725l-4.11 4.087c-.202.201-.563.235-.764.034-.202-.2-.176-.551.026-.752l4.118-4.095a.517.517 0 0 1 .73 0 .51.51 0 0 1 0 .726z"/></g></symbol><symbol id="user" viewBox="0 0 34 34"><title>Artboard 5</title><g fill="#000" fill-rule="evenodd"><path d="M29.491 26.884l-6.36-2.97c-.597-.284-.971-.846-.971-1.473v-2.105c.15-.177.312-.372.48-.593a14.085 14.085 0 0 0 1.965-3.611c.938-.403 1.548-1.27 1.548-2.251v-2.492c0-.599-.238-1.182-.665-1.634V6.442c.04-.342.182-2.38-1.395-4.062C22.725.92 20.511.18 17.5.18c-3.009 0-5.227.74-6.595 2.2-1.577 1.68-1.43 3.72-1.393 4.063v3.313a2.387 2.387 0 0 0-.667 1.634v2.492c0 .756.368 1.465.998 1.936.61 2.26 1.885 3.959 2.333 4.506v2.06c0 .605-.353 1.156-.919 1.446l-5.936 3.032c-1.932.984-3.13 2.873-3.13 4.93v2.02c0 .07.007.14.018.212h1.405a.348.348 0 0 1-.091-.213v-2.019c0-1.6.932-3.072 2.435-3.84l5.937-3.03c.994-.505 1.61-1.477 1.61-2.537v-2.502l-.155-.173c-.016-.02-1.647-1.862-2.269-4.4l-.058-.248-.229-.14c-.385-.233-.616-.622-.616-1.042v-2.49c0-.35.16-.675.446-.918l.219-.186V6.408l-.004-.084c-.002-.017-.229-1.74 1.067-3.125 1.105-1.178 2.986-1.774 5.594-1.774 2.6 0 4.48.592 5.582 1.759 1.296 1.371 1.083 3.127 1.083 3.138l-.01 3.96.221.187c.285.241.444.568.444.918v2.492c0 .543-.38 1.018-.944 1.182l-.333.095-.108.31a12.749 12.749 0 0 1-1.884 3.555c-.2.264-.391.498-.558.673l-.166.18v2.569c0 1.1.655 2.091 1.709 2.585l6.358 2.973c1.591.747 2.58 2.24 2.58 3.91v1.896c0 .066-.03.138-.088.212h1.405a1.33 1.33 0 0 0 .017-.212V31.91c0-2.141-1.27-4.068-3.317-5.027z"/><path d="M32.955 34.194h-1.953l.233-.283c.048-.06.052-.093.052-.106v-1.896c0-1.602-.951-3.038-2.478-3.75l-6.359-2.971c-1.116-.526-1.815-1.577-1.815-2.747v-2.639l.213-.226c.165-.173.353-.397.544-.657a12.65 12.65 0 0 0 1.862-3.509l.138-.397.426-.121c.485-.141.81-.548.81-1.011v-2.492c0-.297-.134-.578-.38-.785l-.283-.24.008-4.053c.008-.074.175-1.725-1.03-3.004-1.07-1.13-2.9-1.704-5.443-1.704-2.552 0-4.385.576-5.45 1.712-1.217 1.301-1.03 2.92-1.021 2.988l.002.01.006.095v3.957l-.283.237a1.023 1.023 0 0 0-.384.787v2.492c0 .359.198.693.527.893l.293.176.079.32c.606 2.465 2.166 4.25 2.23 4.32l.202.224v2.568c0 1.126-.657 2.158-1.711 2.696l-5.94 3.028c-1.442.737-2.335 2.144-2.335 3.681v2.02c0 .013.004.043.05.106l.23.281h-1.95l-.026-.15a1.457 1.457 0 0 1-.019-.24v-2.019c0-2.118 1.236-4.07 3.23-5.089l5.936-3.03c.504-.258.816-.752.816-1.288V20.38c-.525-.654-1.709-2.295-2.308-4.468-.649-.506-1.019-1.245-1.019-2.033v-2.49c0-.62.239-1.22.665-1.7V6.45c-.043-.421-.163-2.479 1.441-4.19C12.166.76 14.433 0 17.5 0c3.063 0 5.332.76 6.74 2.26 1.605 1.714 1.485 3.77 1.438 4.191v3.237c.432.48.669 1.081.669 1.7v2.493c0 1.007-.62 1.934-1.587 2.38a14.008 14.008 0 0 1-2.407 4.138v2.042c0 .558.33 1.06.865 1.31l6.36 2.972C31.69 27.716 33 29.699 33 31.909v1.896c0 .076-.008.16-.02.239l-.025.15zm-1.286-.355h.95v-1.932c0-2.073-1.231-3.936-3.213-4.863l-6.359-2.973c-.664-.312-1.08-.939-1.08-1.632v-2.17l.044-.049c.149-.167.308-.365.47-.581a13.827 13.827 0 0 0 1.942-3.566l.027-.072.075-.032c.886-.38 1.436-1.182 1.436-2.088v-2.492c0-.555-.219-1.093-.616-1.516l-.048-.052.001-3.398c.041-.373.165-2.312-1.348-3.927C22.623 1.077 20.45.36 17.5.36s-5.123.718-6.452 2.137C9.537 4.11 9.663 6.052 9.704 6.423l.001.017V9.82l-.048.05c-.4.425-.618.963-.618 1.518v2.492c0 .699.335 1.354.924 1.795l.05.038.014.057c.61 2.257 1.914 3.972 2.3 4.441l.04.048v2.12c0 .67-.389 1.28-1.015 1.603l-5.94 3.03c-1.868.954-3.028 2.785-3.028 4.774v2.02l.002.036h.947v-2.056c0-1.664.97-3.197 2.536-3.997l5.939-3.03c.932-.47 1.51-1.385 1.51-2.38v-2.435l-.11-.126c-.07-.076-1.683-1.924-2.31-4.472l-.046-.176-.162-.099c-.442-.266-.704-.712-.704-1.193v-2.49c0-.4.18-.774.51-1.051l.157-.133V6.411l-.006-.07c-.012-.116-.196-1.862 1.114-3.26 1.143-1.217 3.073-1.835 5.739-1.835 2.656 0 4.584.614 5.723 1.82 1.283 1.353 1.155 3.041 1.13 3.268l-.008 3.871.16.133c.325.277.509.65.509 1.05v2.493c0 .621-.434 1.166-1.083 1.352l-.235.067-.075.22a12.802 12.802 0 0 1-1.913 3.606 8.707 8.707 0 0 1-.57.688l-.118.123v2.502c0 1.031.61 1.962 1.6 2.424l6.358 2.975c1.658.773 2.689 2.33 2.689 4.069v1.896c.002.011.002.023.002.036z"/><path d="M2.209 32.726h30.506v1.468H2.209z"/></g></symbol></svg>