<?xml version="1.0" encoding="utf-8"?>
<!-- Generator: Adobe Illustrator 16.2.0, SVG Export Plug-In . SVG Version: 6.00 Build 0)  -->
<!DOCTYPE svg PUBLIC "-//W3C//DTD SVG 1.1//EN" "http://www.w3.org/Graphics/SVG/1.1/DTD/svg11.dtd">
<svg version="1.1" id="Слой_1" xmlns="http://www.w3.org/2000/svg" xmlns:xlink="http://www.w3.org/1999/xlink" x="0px" y="0px"
	 width="114px" height="68px" viewBox="0 0 114 68" enable-background="new 0 0 114 68" xml:space="preserve">
<g>
	<g>
		<g>
			<defs>
				<rect id="SVGID_1_" x="79.931" width="30.137" height="34"/>
			</defs>
			<clipPath id="SVGID_2_">
				<use xlink:href="#SVGID_1_"  overflow="visible"/>
			</clipPath>
			<path clip-path="url(#SVGID_2_)" d="M109.634,28c-2.88-2.864-4.341-6.251-4.341-10.072v-5.56
				c0.026-4.238-2.825-7.052-5.273-8.168c-0.701-0.322-1.425-0.571-2.162-0.752V3.091C97.857,1.386,96.473,0,94.767,0
				c-1.701,0-3.091,1.386-3.091,3.091v0.408c-0.661,0.181-1.313,0.413-1.944,0.703c-2.706,1.249-5.447,4.256-5.472,8.162v5.562
				c0,3.948-1.395,7.339-4.147,10.071c-0.162,0.163-0.224,0.405-0.154,0.624c0.07,0.224,0.258,0.387,0.486,0.427l5.868,1.008
				c1.093,0.193,2.099,0.347,3.055,0.472c1.08,2.118,3.2,3.473,5.516,3.473c2.313,0,4.434-1.358,5.512-3.473
				c0.954-0.129,1.956-0.282,3.043-0.469l5.864-1.011c0.229-0.04,0.416-0.205,0.486-0.427C109.856,28.402,109.796,28.162,109.634,28
				L109.634,28z M92.915,3.091c0-1.023,0.83-1.853,1.854-1.853c1.022,0,1.855,0.829,1.855,1.853v0.112
				c-1.234-0.176-2.484-0.17-3.711,0.03V3.091H92.915z M94.883,32.763c-1.567,0-3.027-0.777-3.97-2.049
				c1.382,0.146,2.671,0.216,3.96,0.216c1.294,0,2.59-0.07,3.975-0.216C97.909,31.985,96.444,32.763,94.883,32.763L94.883,32.763z
				 M103.225,28.841c-1.186,0.203-2.272,0.37-3.303,0.503H99.92c-0.453,0.057-0.894,0.104-1.322,0.149c-0.006,0-0.01,0-0.016,0
				c-0.393,0.038-0.779,0.072-1.159,0.101c-0.072,0.006-0.146,0.01-0.218,0.014c-0.328,0.022-0.655,0.04-0.979,0.053
				c-0.066,0.002-0.135,0.006-0.2,0.01c-0.769,0.024-1.526,0.024-2.297,0c-0.064-0.004-0.136-0.008-0.204-0.01
				c-0.32-0.013-0.644-0.03-0.969-0.053c-0.075-0.004-0.149-0.008-0.229-0.014c-0.371-0.028-0.745-0.059-1.13-0.097
				c-0.014,0-0.025-0.004-0.038-0.004c-0.429-0.043-0.865-0.095-1.315-0.149h-0.007c-1.029-0.131-2.123-0.296-3.313-0.503
				l-4.738-0.817c2.464-2.817,3.71-6.204,3.71-10.098v-5.56c0.021-3.358,2.404-5.955,4.755-7.041c0.7-0.319,1.425-0.562,2.164-0.73
				c0.006,0,0.012,0,0.018-0.004c1.522-0.341,3.146-0.355,4.687-0.039c0.008,0,0.018-0.002,0.022-0.002
				c0.807,0.169,1.6,0.423,2.367,0.773c2.278,1.044,4.57,3.622,4.549,7.041v5.563c0,3.731,1.346,7.2,3.902,10.096L103.225,28.841z"
				/>
		</g>
	</g>
	<path d="M98.733,7.009c-2.394-1.096-5.327-1.096-7.706,0c-1.358,0.628-3.658,2.457-3.677,5.352
		c-0.003,0.342,0.272,0.619,0.613,0.622h0.002c0.341,0,0.619-0.274,0.619-0.616c0.015-2.274,1.865-3.731,2.958-4.234
		c2.061-0.947,4.602-0.947,6.678,0c0.311,0.142,0.676,0.006,0.817-0.305S99.045,7.15,98.733,7.009L98.733,7.009z"/>
</g>
<path d="M32.051,24.118l-5.575-1.297c-0.014-0.013-0.024-0.022-0.038-0.035l-1.604-1.496v-1.287c0.117-0.116,0.232-0.232,0.341-0.35
	c1.618-1.742,2.59-4.086,2.739-6.6c0.006-0.1,0.01-0.198,0.018-0.296v-0.006c0.017-0.319,0.032-0.62,0.065-0.922l0.561-5.216
	c0.18-1.687-0.417-3.377-1.638-4.635S23.956,0,22.137,0h-6.273c-1.82,0-3.563,0.722-4.785,1.979C9.857,3.236,9.26,4.926,9.441,6.614
	L10,11.826c0.033,0.304,0.049,0.609,0.067,0.934c0.006,0.098,0.011,0.195,0.017,0.294c0.149,2.513,1.122,4.857,2.74,6.599
	c0.108,0.116,0.221,0.232,0.341,0.35v1.287l-1.604,1.495c-0.012,0.012-0.022,0.022-0.034,0.035l-5.578,1.297
	C3.402,24.713,2,26.181,2,28.255v3.778C2,33.118,2.948,34,4.111,34h29.777C35.052,34,36,33.118,36,32.033v-3.779
	C36,26.181,34.599,24.713,32.051,24.118z M29.546,28.908c-0.479,0-0.871,0.365-0.871,0.813v2.656h-7.065l-0.45-2.468
	c0.282-0.28,0.47-0.631,0.541-1.005c0.243,0.145,0.523,0.221,0.812,0.221c0.116,0,0.234-0.013,0.349-0.039
	c0.403-0.09,0.748-0.335,0.951-0.673c1.216-2.038,1.981-3.32,2.376-3.984l5.443,1.264c1.77,0.413,2.629,1.251,2.629,2.563v3.777
	c0,0.19-0.164,0.345-0.369,0.345h-3.472v-2.656C30.417,29.273,30.026,28.908,29.546,28.908z M22.419,27.4l-1.071-0.666l-0.005-0.004
	l-0.976-0.605l3.596-3.35l0.781,0.728C24.331,24.197,23.523,25.553,22.419,27.4z M22.991,21.384L19,25.104l-3.991-3.72
	c1.232,0.69,2.599,1.054,3.991,1.054C20.393,22.438,21.758,22.074,22.991,21.384z M12.37,3.069c0.892-0.919,2.165-1.445,3.493-1.445
	h6.273c1.328,0,2.601,0.526,3.494,1.445c0.891,0.917,1.326,2.15,1.193,3.383l-0.246,2.305c-0.657-1.253-1.263-2.025-1.292-2.065
	C25.122,6.484,24.86,6.36,24.583,6.36c-0.177,0-0.346,0.049-0.491,0.142c-1.108,0.704-5.766,1.02-9.892,1.02
	c-0.276,0-0.536-0.001-0.771-0.005h-0.017c-0.246,0-0.482,0.099-0.647,0.27c-0.45,0.471-0.876,1.012-1.273,1.617l-0.317-2.951
	C11.043,5.221,11.479,3.986,12.37,3.069z M13.814,9.143c0.13,0.002,0.28,0.002,0.453,0.002c2.229,0,7.554-0.093,10.003-0.935
	c0.49,0.748,1.423,2.344,1.931,4.294l-0.009,0.174c-0.006,0.096-0.012,0.191-0.017,0.287c-0.26,4.402-3.413,7.849-7.177,7.849
	c-3.765,0-6.917-3.446-7.176-7.849c-0.006-0.096-0.011-0.191-0.017-0.286l-0.007-0.147C11.965,12.104,12.639,10.486,13.814,9.143z
	 M8.455,28.908c-0.48,0-0.872,0.365-0.872,0.813v2.656H4.111c-0.203,0-0.369-0.155-0.369-0.345v-3.778
	c0-1.311,0.861-2.148,2.628-2.562l5.443-1.266c0.36,0.604,1.039,1.743,2.377,3.986c0.201,0.338,0.546,0.583,0.95,0.673
	c0.114,0.026,0.231,0.039,0.349,0.039c0.288,0,0.567-0.076,0.81-0.221c0.071,0.374,0.258,0.727,0.541,1.005l-0.45,2.468H9.324
	v-2.656C9.325,29.273,8.934,28.908,8.455,28.908z M13.256,23.502l0.782-0.729l3.595,3.351l-2.054,1.275
	C14.478,25.555,13.67,24.197,13.256,23.502z M18.494,30.53h1.01l0.336,1.845h-1.683L18.494,30.53z M19,27.227l0.99,0.615v0.722
	c0,0.19-0.166,0.345-0.37,0.345H18.38c-0.204,0-0.371-0.156-0.371-0.345v-0.722L19,27.227z"/>
<g>
	<g>
		<path d="M53.856,0.516H42.482c-1.085,0-1.967,0.883-1.967,1.967v11.374c0,1.084,0.884,1.967,1.967,1.967h11.374
			c1.085,0,1.967-0.883,1.967-1.967V2.482C55.823,1.397,54.941,0.516,53.856,0.516z M54.645,13.856c0,0.437-0.354,0.79-0.79,0.79
			H42.482c-0.436,0-0.79-0.353-0.79-0.79V2.482c0-0.436,0.354-0.788,0.79-0.788h11.374c0.436,0,0.79,0.352,0.79,0.788L54.645,13.856
			L54.645,13.856z"/>
		<path fill="#1D1D1B" d="M53.856,16.337H42.482c-1.369,0-2.482-1.112-2.482-2.481V2.482C40,1.114,41.113,0,42.482,0h11.374
			c1.369,0,2.482,1.113,2.482,2.482v11.374C56.337,15.225,55.225,16.337,53.856,16.337z M42.482,1.031
			c-0.8,0-1.451,0.651-1.451,1.451v11.374c0,0.8,0.651,1.452,1.451,1.452h11.374c0.8,0,1.452-0.651,1.452-1.452V2.482
			c0-0.8-0.651-1.451-1.452-1.451H42.482z M53.856,15.16H42.482c-0.719,0-1.305-0.585-1.305-1.305V2.482
			c0-0.718,0.586-1.304,1.305-1.304h11.374c0.719,0,1.305,0.585,1.305,1.304v11.374C55.159,14.575,54.574,15.16,53.856,15.16z
			 M42.482,2.209c-0.151,0-0.274,0.123-0.274,0.273v11.374c0,0.151,0.123,0.274,0.274,0.274h11.374c0.152,0,0.274-0.123,0.274-0.274
			V2.482c0-0.151-0.122-0.273-0.274-0.273H42.482z"/>
	</g>
	<g>
		<path d="M71.518,0.516H60.144c-1.083,0-1.965,0.883-1.965,1.967v11.374c0,1.084,0.882,1.967,1.965,1.967h11.374
			c1.086,0,1.968-0.883,1.968-1.967V2.482C73.485,1.397,72.604,0.516,71.518,0.516z M72.307,13.856c0,0.437-0.353,0.79-0.789,0.79
			H60.144c-0.437,0-0.788-0.353-0.788-0.79V2.482c0-0.436,0.352-0.788,0.788-0.788h11.374c0.437,0,0.789,0.352,0.789,0.788V13.856z"
			/>
		<path fill="#1D1D1B" d="M71.518,16.337H60.144c-1.367,0-2.48-1.112-2.48-2.481V2.482c0-1.369,1.113-2.482,2.48-2.482h11.374
			C72.887,0,74,1.114,74,2.482v11.374C74,15.225,72.887,16.337,71.518,16.337z M60.144,1.031c-0.8,0-1.45,0.651-1.45,1.451v11.374
			c0,0.8,0.65,1.452,1.45,1.452h11.374c0.802,0,1.451-0.651,1.451-1.452V2.482c0-0.8-0.649-1.451-1.451-1.451H60.144z M71.518,15.16
			H60.144c-0.719,0-1.303-0.585-1.303-1.305V2.482c0-0.718,0.584-1.304,1.303-1.304h11.374c0.72,0,1.304,0.585,1.304,1.304v11.374
			C72.821,14.575,72.237,15.16,71.518,15.16z M60.144,2.209c-0.151,0-0.272,0.123-0.272,0.273v11.374
			c0,0.151,0.121,0.274,0.272,0.274h11.374c0.152,0,0.274-0.123,0.274-0.274V2.482c0-0.151-0.122-0.273-0.274-0.273H60.144z"/>
	</g>
	<g>
		<path d="M53.856,18.179H42.482c-1.085,0-1.967,0.882-1.967,1.965v11.374c0,1.085,0.884,1.967,1.967,1.967h11.374
			c1.085,0,1.967-0.882,1.967-1.967V20.145C55.823,19.061,54.941,18.179,53.856,18.179z M54.645,31.518
			c0,0.436-0.354,0.788-0.79,0.788H42.482c-0.436,0-0.79-0.353-0.79-0.788V20.145c0-0.437,0.354-0.789,0.79-0.789h11.374
			c0.436,0,0.79,0.352,0.79,0.789L54.645,31.518L54.645,31.518z"/>
		<path fill="#1D1D1B" d="M53.856,34H42.482C41.113,34,40,32.887,40,31.518V20.145c0-1.368,1.113-2.481,2.482-2.481h11.374
			c1.369,0,2.482,1.113,2.482,2.481v11.374C56.337,32.887,55.225,34,53.856,34z M42.482,18.694c-0.8,0-1.451,0.65-1.451,1.451
			v11.374c0,0.801,0.651,1.45,1.451,1.45h11.374c0.8,0,1.452-0.649,1.452-1.45V20.145c0-0.8-0.651-1.451-1.452-1.451H42.482z
			 M53.856,32.821H42.482c-0.719,0-1.305-0.583-1.305-1.303V20.145c0-0.719,0.586-1.303,1.305-1.303h11.374
			c0.719,0,1.305,0.584,1.305,1.303v11.374C55.159,32.238,54.574,32.821,53.856,32.821z M42.482,19.872
			c-0.151,0-0.274,0.121-0.274,0.273v11.374c0,0.151,0.123,0.274,0.274,0.274h11.374c0.152,0,0.274-0.123,0.274-0.274V20.145
			c0-0.152-0.122-0.273-0.274-0.273H42.482z"/>
	</g>
	<g>
		<path d="M72.895,25.243H66.42v-6.476c0-0.326-0.263-0.587-0.588-0.587c-0.327,0-0.591,0.262-0.591,0.587v6.476h-6.476
			c-0.325,0-0.589,0.264-0.589,0.589s0.264,0.589,0.589,0.589h6.476v6.475c0,0.326,0.264,0.592,0.591,0.592
			c0.325,0,0.588-0.266,0.588-0.592v-6.475h6.475c0.327,0,0.591-0.264,0.591-0.589S73.222,25.243,72.895,25.243z"/>
		<path fill="#1D1D1B" d="M65.832,34c-0.608,0-1.104-0.495-1.104-1.104v-5.96h-5.961c-0.608,0-1.104-0.494-1.104-1.104
			c0-0.608,0.495-1.104,1.104-1.104h5.961v-5.96c0-0.608,0.495-1.103,1.104-1.103c0.61,0,1.104,0.495,1.104,1.103v5.96h5.959
			c0.609,0,1.105,0.496,1.105,1.104c0,0.61-0.496,1.104-1.105,1.104h-5.959v5.96C66.936,33.504,66.442,34,65.832,34z M58.766,25.757
			c-0.04,0-0.072,0.031-0.072,0.075c0,0.04,0.032,0.073,0.072,0.073h6.992v6.989c0.001,0.083,0.147,0.087,0.147,0v-6.989h6.989
			c0.042,0,0.074-0.033,0.074-0.073c0-0.043-0.032-0.075-0.074-0.075h-6.989v-6.991c0-0.083-0.146-0.079-0.147,0v6.991H58.766z"/>
	</g>
</g>
<g>
	<path fill="#010002" d="M112.026,35.17c-0.576-0.744-1.469-1.17-2.451-1.17c-0.635,0-1.291,0.175-1.955,0.518L79.433,49.108
		c-2.006,1.038-2.144,2.603-2.109,3.228c0.031,0.627,0.338,2.166,2.438,2.989l3.604,1.407c0.683,0.265,1.447,0.404,2.27,0.404
		c0.13,0,0.256-0.016,0.384-0.024c-0.049,0.064-0.109,0.11-0.152,0.179c-0.673,0.99-0.706,2.334-0.099,3.781
		c0.011,0.024,0.02,0.045,0.029,0.067c1.066,2.329,2.251,4.959,2.394,5.325C88.543,67.374,89.443,68,90.431,68
		c1.521,0,1.972-0.722,4.458-4.721c0.194-0.295,0.624-0.977,0.699-1.842c0.289,0.113,0.563,0.223,0.797,0.315l3.992,1.607
		c0.799,0.321,1.5,0.605,1.87,0.756c0.113,0.07,0.233,0.13,0.36,0.181c0.282,0.109,0.582,0.166,0.882,0.166
		c1.817,0,2.25-1.552,2.484-2.385c0.114-0.413,0.273-0.981,0.443-1.61l6.091-22.08C112.965,36.723,112.401,35.657,112.026,35.17z
		 M92.878,62.022c0,0-2.259,3.629-2.45,3.629c-0.005,0-0.009-0.003-0.012-0.007c-0.221-0.59-2.452-5.469-2.452-5.469
		c-0.411-0.979-0.337-1.818,0.371-1.818c0.155,0,0.34,0.041,0.559,0.131l1.732,0.889c0.289,0.195,0.604,0.365,0.952,0.5l0.086,0.033
		l0.165,0.079C93.168,60.69,93.593,60.94,92.878,62.022z M110.21,37.771l-6.085,22.08c-0.343,1.245-0.63,2.263-0.636,2.263
		c-0.008-0.003-0.013-0.027-0.013-0.03c0-0.008-0.991-0.41-2.205-0.899l-3.994-1.605c-1.215-0.482-3.201-1.269-4.42-1.731
		l-0.202-0.08l-0.745-0.383c-0.738-0.561-0.804-1.481-0.062-2.263l12.355-13.061c0.497-0.523,0.683-0.794,0.576-0.794
		c-0.085,0-0.361,0.175-0.82,0.529L88.329,53.972c-0.681,0.524-1.717,0.819-2.691,0.819c-0.5,0-0.984-0.079-1.397-0.241l-3.6-1.405
		c-1.216-0.476-1.261-1.353-0.104-1.956l28.19-14.592c0.327-0.169,0.611-0.247,0.848-0.247
		C110.181,36.35,110.457,36.874,110.21,37.771z"/>
</g>
<g>
	<path d="M19,34c-0.38,0-0.69,0.31-0.69,0.692c0,0.382,0.31,0.691,0.69,0.691c8.592,0,15.58,7.006,15.58,15.616
		c0,8.612-6.987,15.616-15.58,15.616c-8.588,0-15.578-7.004-15.578-15.616c0-5.859,3.226-11.174,8.419-13.873
		c0.336-0.176,0.47-0.594,0.294-0.933c-0.175-0.339-0.591-0.472-0.93-0.295c-5.654,2.936-9.166,8.723-9.166,15.1
		C2.041,60.374,9.65,68,19,68c9.352,0,16.959-7.626,16.959-17.001C35.959,41.626,28.352,34,19,34z"/>
	<path d="M25.649,42.242c-1.925-1.47-4.225-2.247-6.649-2.247c-6.052,0-10.977,4.936-10.977,11.004S12.948,62.005,19,62.005
		c2.932,0,5.69-1.145,7.762-3.225c0.271-0.271,0.271-0.708,0-0.976c-0.269-0.271-0.707-0.271-0.974,0
		c-1.814,1.814-4.223,2.817-6.789,2.817c-5.291,0-9.597-4.315-9.597-9.623c0-5.304,4.304-9.62,9.597-9.62
		c4.244,0,8.036,2.849,9.22,6.931c0.106,0.367,0.489,0.578,0.854,0.471c0.368-0.106,0.576-0.49,0.469-0.857
		C28.895,45.682,27.509,43.664,25.649,42.242z"/>
	<path d="M27.091,48.906c-0.269-0.271-0.705-0.271-0.973,0c-0.271,0.271-0.271,0.706,0,0.979l2.597,2.604
		c0.128,0.129,0.303,0.202,0.489,0.202c0.18,0,0.357-0.073,0.486-0.202l2.597-2.604c0.271-0.271,0.271-0.708,0-0.979
		c-0.267-0.271-0.705-0.271-0.976,0l-2.107,2.114L27.091,48.906z"/>
</g>
<g>
	<g>
		<polygon stroke="#000000" stroke-width="0.25" stroke-miterlimit="10" points="53.656,58.437 66.405,45.61 65.656,44.82 
			53.282,57.179 47.283,51.165 46.53,51.99 52.904,58.437 		"/>
		<path stroke="#000000" stroke-width="0.25" stroke-miterlimit="10" d="M56.999,68L56.999,68c4.546,0,8.813-1.77,12.021-4.979
			C72.232,59.812,74,55.541,74,51c0-4.539-1.772-8.812-4.98-12.021C65.812,35.77,61.545,34,56.999,34l0,0
			c-4.541,0-8.811,1.77-12.021,4.979C41.769,42.189,40,46.461,40,51c0,4.545,1.769,8.812,4.979,12.023
			C48.188,66.23,52.458,68,56.999,68z M45.729,39.73c3.009-3.01,7.014-4.668,11.27-4.668l0,0c4.258,0,8.263,1.658,11.271,4.668
			c3.011,3.01,4.665,7.014,4.665,11.27c0,4.258-1.654,8.259-4.665,11.271c-3.009,3.012-7.014,4.666-11.271,4.666l0,0l0,0
			c-4.259,0-8.261-1.654-11.27-4.666c-3.011-3.009-4.669-7.014-4.665-11.271C41.063,46.744,42.719,42.74,45.729,39.73z"/>
	</g>
</g>
</svg>
