<?xml version="1.0" encoding="UTF-8"?>
<svg width="19px" height="24px" viewBox="0 0 19 24" version="1.1" xmlns="http://www.w3.org/2000/svg" xmlns:xlink="http://www.w3.org/1999/xlink">
    <!-- Generator: Sketch 41.2 (35397) - http://www.bohemiancoding.com/sketch -->
    <title>archive@2x</title>
    <desc>Created with Sketch.</desc>
    <defs></defs>
    <g id="Page-1" stroke="none" stroke-width="1" fill="none" fill-rule="evenodd">
        <g id="Artboard-18" transform="translate(-3.000000, 0.000000)" fill="#000000">
            <g id="archive" transform="translate(3.000000, 0.000000)">
                <g id="xxjr0B_1_">
                    <g id="Group">
                        <path d="M0.0114326648,11.9855575 C0.0114326648,9.26049558 1.34605868e-14,6.53532743 0.0157879656,3.81031858 C0.0249340974,2.23667257 0.752541547,1.06773451 2.20732092,0.357929204 C2.71808883,0.108743363 3.27126648,0.00897345133 3.84083095,0.00854867257 C6.30832665,0.00663716814 8.77576791,0.00918584071 11.2433181,0.0065840708 C11.9293324,0.00584070796 12.4775559,0.31900885 12.9867994,0.719256637 C13.2407679,0.918849558 13.4928854,1.1240708 13.7221375,1.34962832 C15.1776791,2.7819823 16.6355072,4.21242478 18.0737364,5.66123894 C18.6989398,6.29102655 18.9535072,7.05169912 18.9470287,7.95175221 C18.9176848,12.0215044 18.9409857,16.0915752 18.9307507,20.1614867 C18.9267765,21.7577522 18.193235,22.9405487 16.7147736,23.6530619 C16.2121175,23.895292 15.6660716,23.9912389 15.1057077,23.9913982 C11.3500229,23.9925664 7.59433811,24.0009027 3.83876218,23.9885841 C1.65811748,23.9815221 0.0198710602,22.3569558 0.0133925501,20.2138938 C0.00517191977,17.4711504 0.0114326648,14.728354 0.0114326648,11.9855575 Z M8.53829513,1.86233628 C8.45587106,1.84922124 8.41210029,1.83626549 8.36832951,1.83621239 C6.85355587,1.8359469 5.33856447,1.8200708 3.82417192,1.84306195 C2.67099713,1.86063717 1.89608023,2.64743363 1.89493696,3.77973451 C1.8894384,9.25571681 1.88976504,14.7316991 1.89455587,20.2077345 C1.89559026,21.3750796 2.69473352,22.1576814 3.89336676,22.1599646 C7.61224928,22.1670796 11.3311318,22.1670265 15.0499599,22.1543894 C15.3576074,22.1533274 15.6916046,22.0915752 15.9671862,21.9634513 C16.7435186,21.6024956 17.0571547,20.956885 17.0557937,20.1298938 C17.049533,16.255115 17.0531261,12.3803363 17.0524183,8.50555752 C17.0523639,8.39957522 17.0441977,8.29359292 17.0385358,8.18771681 C17.0214957,7.87014159 16.8514756,7.64012389 16.5543897,7.54529204 C16.283,7.45869027 15.9908138,7.39810619 15.7064126,7.39253097 C14.636533,7.37161062 13.5661089,7.37766372 12.4957393,7.3739469 C11.7249599,7.37129204 11.3794756,7.03842478 11.3771891,6.29246018 C11.3740315,5.26624779 11.38051,4.2399823 11.3649943,3.2139823 C11.3607479,2.93410619 11.3136562,2.65040708 11.2476189,2.37727434 C11.1894756,2.13658407 11.0282751,1.94453097 10.7741433,1.86870796 C10.5467966,1.80084956 10.3913668,1.7719115 10.4025272,2.10732743 C10.4198395,2.62869027 10.4184785,3.15143363 10.4018739,3.67290265 C10.3841261,4.23021239 9.99764756,4.59127434 9.45323496,4.59127434 C8.95569628,4.59127434 8.5758596,4.2220354 8.5447192,3.68633628 C8.52729799,3.38649558 8.53900287,3.08500885 8.53840401,2.78426549 C8.5378596,2.47704425 8.53829513,2.1699823 8.53829513,1.86233628 Z" id="Shape"></path>
                        <path d="M8.53889398,11.8921062 C8.53889398,11.6942124 8.53274212,11.420708 8.54014613,11.147469 C8.55631519,10.5497522 8.92450143,10.1813097 9.49493696,10.1830088 C10.0182264,10.1846018 10.3836905,10.5640354 10.404596,11.1397168 C10.4145587,11.4130088 10.4062837,11.6869381 10.4062837,11.9774336 C10.5108653,12.006 10.6052665,12.0268142 10.6961834,12.0576637 C11.0513037,12.1780885 11.2977049,12.4111327 11.3270487,12.7813274 C11.358298,13.1763717 11.3561203,13.5770442 11.3257966,13.9721947 C11.3132751,14.1352035 11.221596,14.3189735 11.1071605,14.4409381 C10.975086,14.581646 10.9931605,14.6807257 11.0595244,14.8332212 C11.5173209,15.8847611 11.918063,16.9572743 12.1018567,18.0896283 C12.2821117,19.1996814 11.8928023,20.1111504 10.9254355,20.7229381 C9.98017192,21.3205487 8.97360745,21.3220885 8.0264384,20.7268673 C7.05705731,20.1177876 6.66355587,19.2073805 6.84206877,18.0972743 C7.0256447,16.9558407 7.43008883,15.8749381 7.89376504,14.816177 C7.95855014,14.6682478 7.98860172,14.5546726 7.83491404,14.454 C7.82761891,14.4491681 7.82222923,14.4414159 7.81640401,14.4346726 C7.49487393,14.0590619 7.4644957,12.717292 7.80758453,12.3627611 C7.98375645,12.180531 8.24463897,12.076354 8.53889398,11.8921062 Z M9.46254441,20.0286903 C10.3141691,20.0332035 11.0061175,19.3633805 11.0038854,18.5364425 C11.0018166,17.7259115 10.3131347,17.0512566 9.48252436,17.0458407 C8.64108023,17.0403186 7.93895129,17.7224602 7.94112894,18.5432389 C7.94330659,19.3597699 8.62371347,20.0241239 9.46254441,20.0286903 Z" id="Shape"></path>
                        <path d="M10.4047049,7.4200885 C10.4047049,7.71132743 10.4160287,8.00304425 10.4023095,8.29369912 C10.3762321,8.84484956 9.99601433,9.20309735 9.45056734,9.2079823 C8.96674785,9.21228319 8.56437249,8.83136283 8.5472235,8.30277876 C8.52686246,7.67692035 8.52778797,7.04936283 8.55081662,6.42361062 C8.56943553,5.91838938 8.95988825,5.57484956 9.4672808,5.56534513 C9.95360458,5.55621239 10.3474327,5.89120354 10.3880458,6.38861947 C10.4160287,6.73040708 10.3934355,7.07612389 10.3934355,7.4200885 L10.4047049,7.4200885 Z" id="Shape"></path>
                    </g>
                </g>
            </g>
        </g>
    </g>
</svg>