<?xml version="1.0" encoding="UTF-8"?>
<svg width="34px" height="34px" viewBox="0 0 34 34" version="1.1" xmlns="http://www.w3.org/2000/svg" xmlns:xlink="http://www.w3.org/1999/xlink">
    <!-- Generator: Sketch 41.2 (35397) - http://www.bohemiancoding.com/sketch -->
    <title>Artboard 2</title>
    <desc>Created with Sketch.</desc>
    <defs>
        <rect id="path-1" x="0.931" y="0" width="30.137" height="34"></rect>
    </defs>
    <g id="Page-1" stroke="none" stroke-width="1" fill="none" fill-rule="evenodd">
        <g id="Artboard-2">
            <mask id="mask-2" fill="white">
                <use xlink:href="#path-1"></use>
            </mask>
            <g id="SVGID_1_"></g>
            <path d="M30.634,28 C27.754,25.136 26.293,21.749 26.293,17.928 L26.293,12.368 C26.319,8.13 23.468,5.316 21.02,4.2 C20.319,3.878 19.595,3.629 18.858,3.448 L18.858,3.091 C18.857,1.386 17.473,0 15.767,0 C14.066,0 12.676,1.386 12.676,3.091 L12.676,3.499 C12.015,3.68 11.363,3.912 10.732,4.202 C8.026,5.451 5.285,8.458 5.26,12.364 L5.26,17.926 C5.26,21.874 3.865,25.265 1.113,27.997 C0.951,28.16 0.889,28.402 0.959,28.621 C1.029,28.845 1.217,29.008 1.445,29.048 L7.313,30.056 C8.406,30.249 9.412,30.403 10.368,30.528 C11.448,32.646 13.568,34.001 15.884,34.001 C18.197,34.001 20.318,32.643 21.396,30.528 C22.35,30.399 23.352,30.246 24.439,30.059 L30.303,29.048 C30.532,29.008 30.719,28.843 30.789,28.621 C30.856,28.402 30.796,28.162 30.634,28 L30.634,28 Z M13.915,3.091 C13.915,2.068 14.745,1.238 15.769,1.238 C16.791,1.238 17.624,2.067 17.624,3.091 L17.624,3.203 C16.39,3.027 15.14,3.033 13.913,3.233 L13.913,3.091 L13.915,3.091 Z M15.883,32.763 C14.316,32.763 12.856,31.986 11.913,30.714 C13.295,30.86 14.584,30.93 15.873,30.93 C17.167,30.93 18.463,30.86 19.848,30.714 C18.909,31.985 17.444,32.763 15.883,32.763 L15.883,32.763 Z M24.225,28.841 C23.039,29.044 21.953,29.211 20.922,29.344 L20.92,29.344 C20.467,29.401 20.026,29.448 19.598,29.493 L19.582,29.493 C19.189,29.531 18.803,29.565 18.423,29.594 C18.351,29.6 18.277,29.604 18.205,29.608 C17.877,29.63 17.55,29.648 17.226,29.661 C17.16,29.663 17.091,29.667 17.026,29.671 C16.257,29.695 15.5,29.695 14.729,29.671 C14.665,29.667 14.593,29.663 14.525,29.661 C14.205,29.648 13.881,29.631 13.556,29.608 C13.481,29.604 13.407,29.6 13.327,29.594 C12.956,29.566 12.582,29.535 12.197,29.497 C12.183,29.497 12.172,29.493 12.159,29.493 C11.73,29.45 11.294,29.398 10.844,29.344 L10.837,29.344 C9.808,29.213 8.714,29.048 7.524,28.841 L2.786,28.024 C5.25,25.207 6.496,21.82 6.496,17.926 L6.496,12.366 C6.517,9.008 8.9,6.411 11.251,5.325 C11.951,5.006 12.676,4.763 13.415,4.595 C13.421,4.595 13.427,4.595 13.433,4.591 C14.955,4.25 16.579,4.236 18.12,4.552 C18.128,4.552 18.138,4.55 18.142,4.55 C18.949,4.719 19.742,4.973 20.509,5.323 C22.787,6.367 25.079,8.945 25.058,12.364 L25.058,17.927 C25.058,21.658 26.404,25.127 28.96,28.023 L24.225,28.841 Z" id="Shape" fill="#000000" mask="url(#mask-2)"></path>
            <path d="M19.733,7.009 C17.339,5.913 14.406,5.913 12.027,7.009 C10.669,7.637 8.369,9.466 8.35,12.361 C8.347,12.703 8.622,12.98 8.963,12.983 L8.965,12.983 C9.306,12.983 9.584,12.709 9.584,12.367 C9.599,10.093 11.449,8.636 12.542,8.133 C14.603,7.186 17.144,7.186 19.22,8.133 C19.531,8.275 19.896,8.139 20.037,7.828 C20.178,7.517 20.045,7.15 19.733,7.009 L19.733,7.009 Z" id="Shape" fill="#000000" mask="url(#mask-2)"></path>
        </g>
    </g>
</svg>