<svg width="16px" height="18px" viewBox="0 0 16 18" version="1.1" xmlns="http://www.w3.org/2000/svg">
	<path d="M13.8278261,4.24315385 L12.4438261,16.1030769 L12.4389565,16.1418462 L12.4389565,16.182 C12.4389565,16.7545385 11.9704348,17.2204615 11.3954783,17.2204615 L4.62121739,17.2204615 C4.04626087,17.2204615 3.57773913,16.7545385 3.57773913,16.182 L3.57773913,16.1418462 L3.57286957,16.1030769 L2.18886957,4.24315385 L1.49356522,4.24315385 C1.49356522,4.25076923 1.49043478,4.25976923 1.49043478,4.26738462 L2.88173913,16.182 C2.88173913,17.1387692 3.65982609,17.9127692 4.62052174,17.9127692 L11.3947826,17.9127692 C12.3554783,17.9127692 13.1335652,17.1387692 13.1335652,16.182 L14.5248696,4.26738462 C14.5248696,4.25976923 14.5227826,4.25076923 14.5227826,4.24315385 L13.8278261,4.24315385 Z" id="Shape"></path>
	<path d="M11.128,2.47534615 L11.128,2.16415385 C11.128,1.01907692 10.1923478,0.0872307692 9.04104348,0.0872307692 L6.77321739,0.0872307692 C5.62191304,0.0872307692 4.68626087,1.01873077 4.68626087,2.16415385 L4.68626087,2.47534615 L0,2.47534615 L0,3.16765385 L15.9989565,3.16765385 L15.9989565,2.47534615 L11.128,2.47534615 Z M10.4323478,2.47534615 L5.38191304,2.47534615 L5.38191304,2.16415385 C5.38191304,1.40053846 6.00626087,0.779538462 6.77321739,0.779538462 L9.04104348,0.779538462 C9.808,0.779538462 10.4323478,1.40053846 10.4323478,2.16415385 L10.4323478,2.47534615 Z" id="Shape"></path>
    <polygon id="Shape" points="5.98573913 16.2730385 5.22086957 4.86796154 4.52313043 4.86796154 5.29147826 16.3190769"></polygon>
    <rect id="Rectangle-path" x="7.66921739" y="4.86796154" width="0.696347826" height="11.4417692"></rect>
    <polygon id="Shape" points="10.8852174 4.86796154 9.97043478 16.263 10.6633043 16.3176923 11.5829565 4.86796154"></polygon>
</svg>