<?xml version="1.0" encoding="UTF-8"?>
<svg width="34px" height="34px" viewBox="0 0 34 34" version="1.1" xmlns="http://www.w3.org/2000/svg" xmlns:xlink="http://www.w3.org/1999/xlink">
    <!-- Generator: Sketch 41.2 (35397) - http://www.bohemiancoding.com/sketch -->
    <title>Artboard 16</title>
    <desc>Created with Sketch.</desc>
    <defs></defs>
    <g id="Page-1" stroke="none" stroke-width="1" fill="none" fill-rule="evenodd">
        <g id="Artboard-16" fill="#000000">
            <g id="calendar" transform="translate(2.000000, 0.000000)">
                <g id="Group">
                    <path d="M30.4464286,2.68421053 L26.5714286,2.68421053 L26.5714286,1.00657895 C26.5714286,0.697894737 26.3243143,0.447368421 26.0178571,0.447368421 L22.1428571,0.447368421 C21.8364,0.447368421 21.5892857,0.697 21.5892857,1.00657895 L21.5892857,2.68421053 L9.41071429,2.68421053 L9.41071429,1.00657895 C9.41071429,0.697894737 9.16271429,0.447368421 8.85714286,0.447368421 L4.98214286,0.447368421 C4.67568571,0.447368421 4.42857143,0.697894737 4.42857143,1.00657895 L4.42857143,2.68421053 L0.553571429,2.68421053 C0.247114286,2.68421053 0,2.93473684 0,3.24342105 L0,9.39473684 L0,33.4407895 C0,33.7503684 0.247114286,34 0.553571429,34 L30.4464286,34 C30.7528857,34 31,33.7503684 31,33.4416842 L31,9.39473684 L31,3.24342105 C31,2.93473684 30.7528857,2.68421053 30.4464286,2.68421053 Z M22.6964286,1.56578947 L25.4642857,1.56578947 L25.4642857,3.24342105 L25.4642857,4.92105263 L22.6964286,4.92105263 L22.6964286,3.24342105 L22.6964286,1.56578947 Z M5.53571429,1.56578947 L8.30357143,1.56578947 L8.30357143,3.24342105 L8.30357143,4.92105263 L5.53571429,4.92105263 L5.53571429,3.24342105 L5.53571429,1.56578947 Z M1.10714286,3.80263158 L4.42857143,3.80263158 L4.42857143,5.48026316 C4.42857143,5.78984211 4.67568571,6.03947368 4.98214286,6.03947368 L8.85714286,6.03947368 C9.1636,6.03947368 9.41071429,5.78984211 9.41071429,5.48026316 L9.41071429,3.80263158 L21.5892857,3.80263158 L21.5892857,5.48026316 C21.5892857,5.78984211 21.8364,6.03947368 22.1428571,6.03947368 L26.0178571,6.03947368 C26.3243143,6.03947368 26.5714286,5.78984211 26.5714286,5.48026316 L26.5714286,3.80263158 L29.8928571,3.80263158 L29.8928571,8.83552632 L1.10714286,8.83552632 L1.10714286,3.80263158 Z M1.10714286,32.8824737 L1.10714286,9.95394737 L29.8928571,9.95394737 L29.8928571,32.8815789 L1.10714286,32.8815789 L1.10714286,32.8824737 Z" id="Shape"></path>
                    <path d="M19.9285714,13.3092105 L16.0535714,13.3092105 L14.9464286,13.3092105 L11.0714286,13.3092105 L9.96428571,13.3092105 L4.98214286,13.3092105 L4.98214286,18.3421053 L4.98214286,19.4596316 L4.98214286,23.375 L4.98214286,24.4925263 L4.98214286,29.5263158 L9.96428571,29.5263158 L11.0714286,29.5263158 L14.9464286,29.5263158 L16.0535714,29.5263158 L19.9285714,29.5263158 L21.0357143,29.5263158 L26.0178571,29.5263158 L26.0178571,24.4934211 L26.0178571,23.3758947 L26.0178571,19.4605263 L26.0178571,18.343 L26.0178571,13.3101053 L21.0357143,13.3101053 L19.9285714,13.3101053 L19.9285714,13.3092105 Z M16.0535714,14.4276316 L19.9285714,14.4276316 L19.9285714,18.3421053 L16.0535714,18.3421053 L16.0535714,14.4276316 Z M19.9285714,23.3758947 L16.0535714,23.3758947 L16.0535714,19.4605263 L19.9285714,19.4605263 L19.9285714,23.3758947 Z M11.0714286,19.4605263 L14.9464286,19.4605263 L14.9464286,23.3758947 L11.0714286,23.3758947 L11.0714286,19.4605263 Z M11.0714286,14.4276316 L14.9464286,14.4276316 L14.9464286,18.3421053 L11.0714286,18.3421053 L11.0714286,14.4276316 Z M6.08928571,14.4276316 L9.96428571,14.4276316 L9.96428571,18.3421053 L6.08928571,18.3421053 L6.08928571,14.4276316 Z M6.08928571,19.4605263 L9.96428571,19.4605263 L9.96428571,23.3758947 L6.08928571,23.3758947 L6.08928571,19.4605263 Z M9.96428571,28.4087895 L6.08928571,28.4087895 L6.08928571,24.4934211 L9.96428571,24.4934211 L9.96428571,28.4087895 Z M14.9464286,28.4087895 L11.0714286,28.4087895 L11.0714286,24.4934211 L14.9464286,24.4934211 L14.9464286,28.4087895 Z M19.9285714,28.4087895 L16.0535714,28.4087895 L16.0535714,24.4934211 L19.9285714,24.4934211 L19.9285714,28.4087895 Z M24.9107143,28.4087895 L21.0357143,28.4087895 L21.0357143,24.4934211 L24.9107143,24.4934211 L24.9107143,28.4087895 Z M24.9107143,23.3758947 L21.0357143,23.3758947 L21.0357143,19.4605263 L24.9107143,19.4605263 L24.9107143,23.3758947 Z M24.9107143,14.4276316 L24.9107143,18.3421053 L21.0357143,18.3421053 L21.0357143,14.4276316 L24.9107143,14.4276316 Z" id="Shape"></path>
                </g>
            </g>
        </g>
    </g>
</svg>