<svg width="34px" height="34px" viewBox="0 0 34 34" version="1.1" xmlns="http://www.w3.org/2000/svg">
    <g id="partners" transform="translate(0.000000, 2.000000)">
        <path d="M25.0521714,0.934766667 C22.6984,0.934766667 21.1004,1.91786667 19.5577714,3.5061 L17.4381143,5.67916667 C17.2302286,5.89376667 16.8931429,5.89376667 16.6842857,5.67916667 C16.6842857,5.67916667 14.5685143,3.50126667 14.5646286,3.5061 C13.022,1.91786667 11.4230286,0.934766667 9.06925714,0.934766667 C4.36171429,0.934766667 0.544971429,4.86523333 0.544971429,9.71403333 C0.544971429,11.5449 1.09091429,13.2452667 2.02251429,14.6517667 C2.02251429,14.6517667 2.414,15.2907333 2.87542857,15.7663333 C3.33685714,16.2419333 15.5535429,28.2759667 15.5535429,28.2759667 C15.9702857,28.7042 16.5152571,28.9188 17.0602286,28.9188 C17.6052,28.9188 18.1511429,28.7042 18.5669143,28.2759667 C18.5669143,28.2759667 30.7826286,16.2429 31.2450286,15.7663333 C31.7064571,15.2907333 32.0979429,14.6517667 32.0979429,14.6517667 C33.0295429,13.2452667 33.5754857,11.5449 33.5754857,9.71403333 C33.5764571,4.86523333 29.7606857,0.934766667 25.0521714,0.934766667 Z M30.7602857,14.6392 C30.7602857,14.6392 30.4338857,15.0500333 29.7888571,15.7151 C29.1438286,16.3792 17.8140571,27.4997333 17.8140571,27.4997333 C17.6061714,27.7143333 17.3332,27.8216333 17.0602286,27.8216333 C16.7882286,27.8216333 16.5152571,27.7143333 16.3064,27.4997333 C16.3064,27.4997333 4.97662857,16.3792 4.3316,15.7151 C3.68657143,15.051 3.36017143,14.6392 3.36017143,14.6392 C2.27217143,13.3052 1.60965714,11.5922667 1.60965714,9.71306667 C1.60965714,5.47036667 4.94942857,2.03096667 9.06828571,2.03096667 C11.1277143,2.03096667 12.4595429,2.89033333 13.8098286,4.28136667 L13.8146857,4.27653333 L16.3073714,6.84303333 C16.7241143,7.27126667 17.3982857,7.27126667 17.8140571,6.84303333 L20.3057714,4.27653333 L20.3106286,4.28136667 C21.6599429,2.89033333 22.9917714,2.03096667 25.0521714,2.03096667 C29.172,2.03096667 32.5108,5.47036667 32.5108,9.71306667 C32.5108,11.5932333 31.8482857,13.3052 30.7602857,14.6392 Z" id="Shape"></path>
        <path d="M25.0521714,4.22723333 C24.7578286,4.22723333 24.5198286,4.47276667 24.5198286,4.77533333 C24.5198286,5.07886667 24.7578286,5.32343333 25.0521714,5.32343333 C27.4059429,5.32343333 29.3138286,7.28866667 29.3138286,9.71306667 C29.3138286,10.0166 29.5518286,10.2611667 29.8461714,10.2611667 C30.1405143,10.2611667 30.3785143,10.0156333 30.3785143,9.71306667 C30.3804571,6.6845 27.9946286,4.22723333 25.0521714,4.22723333 Z" id="Shape"></path>
    </g>
</svg>