<?xml version="1.0" encoding="UTF-8"?>
<svg width="24px" height="24px" viewBox="0 0 24 24" version="1.1" xmlns="http://www.w3.org/2000/svg" xmlns:xlink="http://www.w3.org/1999/xlink">
    <!-- Generator: Sketch 41.2 (35397) - http://www.bohemiancoding.com/sketch -->
    <title>Artboard 12</title>
    <desc>Created with Sketch.</desc>
    <defs></defs>
    <g id="Page-1" stroke="none" stroke-width="1" fill="none" fill-rule="evenodd">
        <g id="Artboard-12" fill="#1D1D1B">
            <g id="biglist" transform="translate(1.000000, 3.000000)">
                <path d="M0,11.5263871 L5.17475676,11.5263871 L5.17475676,6.47419355 L0,6.47419355 L0,11.5263871 Z M0,17.8449677 L5.17475676,17.8449677 L5.17475676,12.7904516 L0,12.7904516 L0,17.8449677 Z M0,5.20954839 L5.17475676,5.20954839 L5.17475676,0.155032258 L0,0.155032258 L0,5.20954839 Z M6.46978378,11.5263871 L22,11.5263871 L22,6.47419355 L6.46978378,6.47419355 L6.46978378,11.5263871 Z M6.46978378,17.8449677 L22,17.8449677 L22,12.7904516 L6.46978378,12.7904516 L6.46978378,17.8449677 Z M6.46978378,0.155032258 L6.46978378,5.20954839 L22,5.20954839 L22,0.155032258 L6.46978378,0.155032258 Z" id="Shape"></path>
            </g>
        </g>
    </g>
</svg>