<svg width="24px" height="24px" viewBox="0 0 24 24" version="1.1" xmlns="http://www.w3.org/2000/svg">
    <path d="M20.902973,16.3756897 L6.19091892,16.3756897 C5.58443243,16.3756897 5.09448649,15.8903103 5.09448649,15.2935517 C5.09448649,14.6950345 5.58443243,14.2102414 6.19091892,14.2102414 L20.902973,14.2102414 C21.5088649,14.2102414 22,14.6944483 22,15.2935517 C22,15.8897241 21.5088649,16.3756897 20.902973,16.3756897 L20.902973,16.3756897 Z" id="Shape"></path>
    <path d="M20.902973,9.58272414 L6.19091892,9.58272414 C5.58443243,9.58272414 5.09448649,9.09910345 5.09448649,8.5 C5.09448649,7.90206897 5.58443243,7.41786207 6.19091892,7.41786207 L20.902973,7.41786207 C21.5088649,7.41786207 22,7.90206897 22,8.5 C22,9.09851724 21.5088649,9.58272414 20.902973,9.58272414 L20.902973,9.58272414 Z" id="Shape"></path>
    <path d="M20.902973,2.78917241 L6.19091892,2.78917241 C5.58443243,2.78917241 5.09448649,2.30437931 5.09448649,1.70762069 C5.09448649,1.10793103 5.58443243,0.623724138 6.19091892,0.623724138 L20.902973,0.623724138 C21.5088649,0.623724138 22,1.10793103 22,1.70762069 C22,2.30437931 21.5088649,2.78917241 20.902973,2.78917241 L20.902973,2.78917241 Z" id="Shape"></path>
    <path d="M2.948,1.78968966 C2.948,2.59396552 2.28918919,3.24289655 1.474,3.24289655 C0.658810811,3.24289655 0,2.59396552 0,1.78968966 C0,0.986586207 0.658810811,0.337068966 1.474,0.337068966 C2.28918919,0.337068966 2.948,0.986586207 2.948,1.78968966 L2.948,1.78968966 Z" id="Shape"></path>
    <path d="M2.948,8.5 C2.948,9.30310345 2.28918919,9.95262069 1.474,9.95262069 C0.658810811,9.95262069 0,9.30310345 0,8.5 C0,7.69865517 0.658810811,7.0462069 1.474,7.0462069 C2.28918919,7.0462069 2.948,7.69865517 2.948,8.5 L2.948,8.5 Z" id="Shape"></path>
    <path d="M2.948,15.2097241 C2.948,16.0122414 2.28918919,16.662931 1.474,16.662931 C0.658810811,16.662931 0,16.0122414 0,15.2097241 C0,14.4072069 0.658810811,13.755931 1.474,13.755931 C2.28918919,13.755931 2.948,14.4072069 2.948,15.2097241 L2.948,15.2097241 Z" id="Shape"></path>
</svg>