<?xml version="1.0" encoding="UTF-8"?>
<svg width="34px" height="34px" viewBox="0 0 34 34" version="1.1" xmlns="http://www.w3.org/2000/svg" xmlns:xlink="http://www.w3.org/1999/xlink">
    <!-- Generator: Sketch 41.2 (35397) - http://www.bohemiancoding.com/sketch -->
    <title>Artboard 4</title>
    <desc>Created with Sketch.</desc>
    <defs></defs>
    <g id="Page-1" stroke="none" stroke-width="1" fill="none" fill-rule="evenodd">
        <g id="Artboard-4" fill="#010002">
            <path d="M33.3727263,2.04819937 C32.8188579,1.33278602 31.9601695,0.923154176 31.0159008,0.923154176 C30.4052994,0.923154176 29.7745048,1.09143017 29.1360176,1.42125111 L2.03204426,15.4506608 C0.103120617,16.4487778 -0.0295770207,17.953646 0.00407817735,18.5546317 C0.0338870671,19.1575405 0.329091233,20.6374076 2.34840312,21.4287856 L5.81392694,22.7817245 C6.4706841,23.0365425 7.20532899,23.1702017 7.99670693,23.1702017 C8.12171196,23.1702017 8.24287067,23.1548165 8.36595254,23.1471238 C8.31883526,23.2086648 8.26114063,23.2528973 8.21979282,23.3192461 C7.57265144,24.2712075 7.54091939,25.5635671 8.12459669,26.9549691 C9.1775236,29.2589078 10.3169924,31.7878556 10.454498,32.1397928 C10.7920115,33.0148279 11.6574309,33.6167752 12.6074691,33.6167752 C14.0700278,33.6167752 14.5036991,32.9225165 16.8941797,29.0771697 C17.0807257,28.7935045 17.4942038,28.1377089 17.5663221,27.3059447 C17.8442179,27.414603 18.10769,27.5203764 18.3326991,27.6088415 L22.1713148,29.1540959 C22.9396149,29.4627622 23.6136804,29.73585 23.9694639,29.8810482 C24.0781222,29.9483586 24.1935114,30.0060532 24.3156317,30.0550936 C24.5867964,30.1599055 24.8752696,30.2147154 25.1637427,30.2147154 C26.9109283,30.2147154 27.3272911,28.7223478 27.5523002,27.9213541 C27.66192,27.5242227 27.8148107,26.978047 27.9782788,26.373215 L33.8352449,5.14159286 C34.2756472,3.54152859 33.7333177,2.51648741 33.3727263,2.04819937 Z M14.9604482,27.8684673 C14.9604482,27.8684673 12.7882456,31.3580306 12.6045843,31.3580306 C12.3805369,30.7839691 10.2352584,26.0924345 10.2352584,26.0924345 C9.84005021,25.1510505 9.91120692,24.3442873 10.5920035,24.3442873 C10.7410479,24.3442873 10.9189397,24.383712 11.1295251,24.4702539 L12.7949766,25.3250959 C13.0728724,25.5126035 13.3757692,25.6760716 13.710398,25.8058845 L13.7930936,25.8376165 L13.9517538,25.9135811 C15.2393056,26.5876467 15.6479758,26.8280409 14.9604482,27.8684673 Z M31.6265023,4.54926138 L25.7753057,25.7808835 C25.4454848,26.978047 25.1695122,27.9569324 25.1637427,27.9569324 C25.1512422,27.9203925 24.1983193,27.5338385 23.0309647,27.0636273 L19.1904258,25.5202961 C18.0221097,25.0568159 16.1124176,24.3000548 14.9402551,23.8558062 L14.7460165,23.77888 L14.0296416,23.410596 C13.3199977,22.8711512 13.2565336,21.9865003 13.9700238,21.234547 L25.8503087,8.67538866 C26.3282125,8.17248384 26.5070659,7.91189645 26.4041771,7.91189645 C26.3224431,7.91189645 26.0570478,8.08017244 25.6156839,8.42057073 L10.586234,20.1277718 C9.93140004,20.6316382 8.93520617,20.9153034 7.99863009,20.9153034 C7.51784154,20.9153034 7.05243823,20.8393388 6.6553069,20.6835633 L3.19362938,19.3325475 C2.02435164,18.8748368 1.98108067,18.0315337 3.09362536,17.4517027 L30.2004835,3.42036987 C30.5149192,3.25786335 30.7880071,3.18286033 31.0159008,3.18286033 C31.5986166,3.18286033 31.8640118,3.68672673 31.6265023,4.54926138 Z" id="Shape"></path>
        </g>
    </g>
</svg>