<?xml version="1.0" encoding="UTF-8"?>
<svg width="16px" height="16px" viewBox="0 0 16 16" version="1.1" xmlns="http://www.w3.org/2000/svg" xmlns:xlink="http://www.w3.org/1999/xlink">
    <!-- Generator: Sketch 41.2 (35397) - http://www.bohemiancoding.com/sketch -->
    <title>Artboard 15</title>
    <desc>Created with Sketch.</desc>
    <defs></defs>
    <g id="Page-1" stroke="none" stroke-width="1" fill="none" fill-rule="evenodd">
        <g id="Artboard-15" fill="#000000">
            <g id="edit">
                <path d="M15.266,4.014 C15.274,4.535 15.07,4.97 14.708,5.331 C11.828,8.217 8.946,11.103 6.06,13.982 C5.95,14.092 5.795,14.179 5.645,14.221 C4.155,14.652 2.665,15.076 1.17,15.491 C0.518,15.672 0.128,15.262 0.311,14.606 C0.72,13.142 1.127,11.677 1.55,10.217 C1.608,10.022 1.719,9.817 1.863,9.673 C4.71,6.812 7.564,3.957 10.421,1.104 C11.205,0.319 12.299,0.317 13.094,1.097 C13.635,1.626 14.168,2.163 14.698,2.702 C15.094,3.108 15.265,3.517 15.266,4.014 Z M3.158,10.191 C3.972,11.01 4.789,11.831 5.567,12.613 C7.677,10.509 9.81,8.383 11.936,6.263 C11.134,5.461 10.319,4.645 9.522,3.847 C7.395,5.967 5.262,8.093 3.158,10.191 Z M10.422,2.873 C11.26,3.706 12.083,4.524 12.922,5.358 C13.209,5.066 13.523,4.758 13.823,4.438 C14.083,4.162 14.096,3.889 13.84,3.623 C13.286,3.05 12.722,2.485 12.149,1.931 C11.906,1.696 11.624,1.698 11.378,1.926 C11.042,2.237 10.726,2.57 10.422,2.873 Z M2.488,11.472 C2.255,12.306 2.023,13.132 1.776,14.017 C2.67,13.763 3.493,13.532 4.327,13.296 C3.7,12.674 3.107,12.086 2.488,11.472 Z" id="Shape"></path>
            </g>
        </g>
    </g>
</svg>