<?xml version="1.0" encoding="UTF-8"?>
<svg width="22px" height="22px" viewBox="0 0 22 22" version="1.1" xmlns="http://www.w3.org/2000/svg" xmlns:xlink="http://www.w3.org/1999/xlink">
    <!-- Generator: Sketch 41.2 (35397) - http://www.bohemiancoding.com/sketch -->
    <title>Artboard 19</title>
    <desc>Created with Sketch.</desc>
    <defs></defs>
    <g id="Page-1" stroke="none" stroke-width="1" fill="none" fill-rule="evenodd">
        <g id="Artboard-19" fill="#000000">
            <path d="M22,9.5 L22,12.5 C22,12.9166667 21.8541667,13.2708333 21.5625,13.5625 C21.2708333,13.8541667 20.9166667,14 20.5,14 L14,14 L14,20.5 C14,20.9166667 13.8541667,21.2708333 13.5625,21.5625 C13.2708333,21.8541667 12.9166667,22 12.5,22 L9.5,22 C9.08333333,22 8.72916667,21.8541667 8.4375,21.5625 C8.14583333,21.2708333 8,20.9166667 8,20.5 L8,14 L1.5,14 C1.08333333,14 0.729166667,13.8541667 0.4375,13.5625 C0.145833333,13.2708333 0,12.9166667 0,12.5 L0,9.5 C0,9.08333333 0.145833333,8.72916667 0.4375,8.4375 C0.729166667,8.14583333 1.08333333,8 1.5,8 L8,8 L8,1.5 C8,1.08333333 8.14583333,0.729166667 8.4375,0.4375 C8.72916667,0.145833333 9.08333333,0 9.5,0 L12.5,0 C12.9166667,0 13.2708333,0.145833333 13.5625,0.4375 C13.8541667,0.729166667 14,1.08333333 14,1.5 L14,8 L20.5,8 C20.9166667,8 21.2708333,8.14583333 21.5625,8.4375 C21.8541667,8.72916667 22,9.08333333 22,9.5 Z" id="Shape"></path>
        </g>
    </g>
</svg>