<svg width="34px" height="34px" viewBox="0 0 34 34" version="1.1" xmlns="http://www.w3.org/2000/svg">
    <circle id="Oval" cx="16.9883726" cy="26.7551304" r="1.0625"></circle>
    <path d="M16.7520121,7.10807188 C13.4218191,7.10807188 11.3534037,9.17654714 11.3534037,12.5066874 C11.3534037,12.8003093 11.590972,13.0379374 11.8846537,13.0379374 C12.1782685,13.0379374 12.4159037,12.8003093 12.4159037,12.5066874 C12.4159037,9.75082802 13.9961528,8.17057188 16.7520121,8.17057188 C20.9361369,8.17057188 21.5607281,11.1837686 21.5607281,12.9798187 C21.5607281,14.7266215 20.1252381,16.7141347 18.2217692,17.6023315 C16.0671845,18.6072428 16.4438416,22.1329915 16.4609407,22.2824319 C16.4915934,22.5537414 16.7214121,22.7534912 16.9880474,22.7534912 C17.0082866,22.7534912 17.0285279,22.7524272 17.0487692,22.7498778 C17.3403179,22.7166747 17.5499045,22.4535991 17.516215,22.1620504 C17.513082,22.1329916 17.2251446,19.2396444 18.671047,18.5652221 C20.9610007,17.4965067 22.6232281,15.1473714 22.6232281,12.9798187 C22.6232281,9.30309047 20.4282166,7.10807188 16.7520121,7.10807188 Z" id="Shape"></path>
    <path d="M17,0 C7.61116589,0 0,7.61116536 0,17 C0,26.3888346 7.61116536,34 17,34 C26.3888346,34 34,26.3888341 34,17 C34,7.61116589 26.3888402,0 17,0 Z M17,32.9375 C8.21200991,32.9375 1.0625,25.7879901 1.0625,17 C1.0625,8.21206261 8.2120089,1.0625 17,1.0625 C25.7879374,1.0625 32.9375,8.21206261 32.9375,17 C32.9375,25.7879901 25.7879374,32.9375 17,32.9375 Z" id="Shape"></path>
</svg>