<svg width="34px" height="34px" viewBox="0 0 34 34" version="1.1" xmlns="http://www.w3.org/2000/svg">
    <path d="M17,0 C16.62,0 16.31,0.31 16.31,0.692 C16.31,1.074 16.62,1.383 17,1.383 C25.592,1.383 32.58,8.389 32.58,16.999 C32.58,25.611 25.593,32.615 17,32.615 C8.412,32.615 1.422,25.611 1.422,16.999 C1.422,11.14 4.648,5.825 9.841,3.126 C10.177,2.95 10.311,2.532 10.135,2.193 C9.96,1.854 9.544,1.721 9.205,1.898 C3.551,4.834 0.039,10.621 0.039,16.998 C0.041,26.374 7.65,34 17,34 C26.352,34 33.959,26.374 33.959,16.999 C33.959,7.626 26.352,0 17,0 Z" id="Shape"></path>
    <path d="M23.649,8.242 C21.724,6.772 19.424,5.995 17,5.995 C10.948,5.995 6.023,10.931 6.023,16.999 C6.023,23.067 10.948,28.005 17,28.005 C19.932,28.005 22.69,26.86 24.762,24.78 C25.033,24.509 25.033,24.072 24.762,23.804 C24.493,23.533 24.055,23.533 23.788,23.804 C21.974,25.618 19.565,26.621 16.999,26.621 C11.708,26.621 7.402,22.306 7.402,16.998 C7.402,11.694 11.706,7.378 16.999,7.378 C21.243,7.378 25.035,10.227 26.219,14.309 C26.325,14.676 26.708,14.887 27.073,14.78 C27.441,14.674 27.649,14.29 27.542,13.923 C26.895,11.682 25.509,9.664 23.649,8.242 Z" id="Shape"></path>
    <path d="M25.091,14.906 C24.822,14.635 24.386,14.635 24.118,14.906 C23.847,15.177 23.847,15.612 24.118,15.885 L26.715,18.489 C26.843,18.618 27.018,18.691 27.204,18.691 C27.384,18.691 27.561,18.618 27.69,18.489 L30.287,15.885 C30.558,15.614 30.558,15.177 30.287,14.906 C30.02,14.635 29.582,14.635 29.311,14.906 L27.204,17.02 L25.091,14.906 Z" id="Shape"></path>
</svg>