<svg width="34px" height="34px" viewBox="0 0 34 34" version="1.1" xmlns="http://www.w3.org/2000/svg">
    <path d="M17.0602286,9.82211429 C13.0696,9.82211429 9.83571429,13.0579429 9.83571429,17.0514857 C9.83571429,21.0450286 13.0696,24.2808571 17.0602286,24.2808571 C21.0508571,24.2808571 24.2847429,21.0450286 24.2847429,17.0514857 C24.2857143,13.0579429 21.0508571,9.82211429 17.0602286,9.82211429 Z M17.0602286,23.2472571 C13.6408,23.2472571 10.8683429,20.4728571 10.8683429,17.0514857 C10.8683429,13.6301143 13.6408,10.8557143 17.0602286,10.8557143 C20.4796571,10.8557143 23.2521143,13.6301143 23.2521143,17.0514857 C23.2530857,20.4728571 20.4806286,23.2472571 17.0602286,23.2472571 Z" id="Shape"></path>
    <path d="M31.5102286,12.92 L28.7387429,12.92 C28.5930286,12.5052 28.4269143,12.1001143 28.2384571,11.7076571 L30.1988,9.74731429 C31.0041143,8.94005714 31.0031429,7.63251429 30.1978286,6.82622857 L27.2777143,3.90514286 C26.4724,3.09982857 25.1648571,3.09788571 24.3595429,3.90514286 L22.3992,5.86645714 C22.0067429,5.67897143 21.6026286,5.51285714 21.1897714,5.36617143 L21.1897714,2.59177143 C21.1888,1.45131429 20.264,0.527485714 19.1245143,0.526514286 L14.9959429,0.527485714 C13.8564571,0.527485714 12.9316571,1.45131429 12.9316571,2.59274286 L12.9316571,5.36714286 C12.5188,5.51285714 12.1146857,5.67897143 11.7222286,5.86742857 L9.76285714,3.90708571 C8.95657143,3.1008 7.64902857,3.10177143 6.84371429,3.90805714 L3.92457143,6.82914286 C3.11828571,7.63542857 3.11828571,8.94297143 3.92457143,9.75022857 L5.88394286,11.7105714 C5.69645714,12.1030286 5.53034286,12.5081143 5.38365714,12.9219429 L2.61217143,12.9219429 C1.47268571,12.9209714 0.547885714,13.8457714 0.547885714,14.9862286 L0.547885714,19.1167429 C0.547885714,20.2572 1.47171429,21.182 2.61217143,21.182 L5.38365714,21.182 C5.52937143,21.5968 5.69548571,22.0018857 5.88394286,22.3943429 L3.9236,24.3546857 C3.11828571,25.1619429 3.11925714,26.4694857 3.92457143,27.2757714 L6.84371429,30.1968571 C7.64902857,31.0021714 8.95657143,31.0041143 9.76188571,30.1968571 L11.7222286,28.2355429 C12.1146857,28.4230286 12.5188,28.5891429 12.9316571,28.7358286 L12.9316571,31.5102286 C12.9326286,32.6506857 13.8574286,33.5754857 14.9969143,33.5754857 L19.1254857,33.5745143 C20.2649714,33.5745143 21.1897714,32.6506857 21.1897714,31.5092571 L21.1897714,28.7348571 C21.6026286,28.5891429 22.0067429,28.4230286 22.3992,28.2345714 L24.3585714,30.1949143 C25.1648571,31.0012 26.4724,31.0002286 27.2777143,30.1939429 L30.1968571,27.2728571 C31.0031429,26.4665714 31.0031429,25.1590286 30.1968571,24.3517714 L28.2374857,22.3914286 C28.4249714,21.9989714 28.5910857,21.5938857 28.7368,21.1800571 L31.5082857,21.1800571 C32.6477714,21.1800571 33.5725714,20.2552571 33.5725714,19.1148 L33.5725714,14.9842857 C33.5745143,13.8448 32.6497143,12.92 31.5102286,12.92 Z M32.5418857,19.1167429 C32.5418857,19.6869714 32.0794857,20.1493714 31.5092571,20.1493714 L28.4133143,20.1493714 C27.9616,20.1493714 27.8790286,20.4990857 27.8217143,20.6710286 C27.7634286,20.8439429 27.7022286,21.0139429 27.6361714,21.182 C27.5798286,21.3277143 27.5205714,21.4705143 27.4584,21.6123429 C27.3894286,21.7706857 27.3165714,21.9261143 27.2408,22.0796 C27.1562857,22.2505714 26.9668571,22.5808571 27.3826286,22.9966286 C27.7984,23.4124 29.4682857,25.0842286 29.4682857,25.0842286 C29.8714286,25.4873714 29.8714286,26.1411429 29.4682857,26.5442857 L26.5491429,29.4653714 C26.146,29.8685143 25.4922286,29.8685143 25.0890857,29.4663429 C25.0890857,29.4663429 23.4464,27.8226857 22.9908,27.3670857 C22.5352,26.9114857 22.2981714,27.132 22.1476,27.2068 C21.9737143,27.2932571 21.7978857,27.3758286 21.6201143,27.4545143 C21.4782857,27.5166857 21.3354857,27.5749714 21.1907429,27.6313143 C21.0314286,27.6934857 20.8692,27.7527429 20.7069714,27.8081143 C20.5262857,27.8693143 20.1571429,27.8936 20.1571429,28.4104 C20.1571429,28.9262286 20.1581143,31.5092571 20.1581143,31.5092571 C20.1571429,32.0785143 19.6966857,32.5418857 19.1254857,32.5418857 L14.9969143,32.5418857 C14.4266857,32.5409143 13.9642857,32.0794857 13.9642857,31.5092571 L13.9642857,28.4104 C13.9642857,27.9023429 13.6582857,27.8887429 13.5077143,27.8392 C13.3134286,27.7750857 13.1220571,27.7061143 12.9326286,27.6322857 C12.7878857,27.5759429 12.6450857,27.5176571 12.5032571,27.4554857 C12.3361714,27.3826286 12.172,27.3049143 12.0097714,27.2242857 C11.8465714,27.1436571 11.5512571,26.9474286 11.1112,27.3874857 C10.6721143,27.8275429 9.03331429,29.4673143 9.03331429,29.4673143 C8.63017143,29.8694857 7.97737143,29.8704571 7.57422857,29.4673143 L4.65508571,26.5452571 C4.25194286,26.1411429 4.25194286,25.4873714 4.65411429,25.0842286 C4.65411429,25.0842286 6.35702857,23.3803429 6.73977143,22.9966286 C7.12251429,22.6129143 6.99234286,22.3001143 6.91754286,22.1534286 C6.82817143,21.9766286 6.74365714,21.7949714 6.664,21.6123429 C6.60182857,21.4695429 6.54257143,21.3257714 6.48525714,21.1810286 C6.4192,21.0129714 6.358,20.842 6.29971429,20.6700571 C6.24142857,20.4981143 6.15885714,20.1484 5.70811429,20.1484 L2.61217143,20.1484 C2.04194286,20.1484 1.57954286,19.686 1.57954286,19.1157714 L1.57954286,14.9852571 C1.57954286,14.4150286 2.04194286,13.9526286 2.61217143,13.9526286 L5.70811429,13.9526286 C6.15982857,13.9526286 6.2424,13.6029143 6.29971429,13.4309714 C6.358,13.2580571 6.4192,13.0880571 6.48525714,12.92 C6.5416,12.7742857 6.60085714,12.6314857 6.66302857,12.4896571 C6.732,12.3313143 6.80485714,12.1758857 6.88062857,12.0224 C6.96514286,11.8514286 7.15457143,11.5211429 6.7388,11.1053714 C6.324,10.6896 4.65314286,9.01777143 4.65314286,9.01777143 C4.25,8.61462857 4.25,7.96085714 4.65314286,7.55771429 L7.57228571,4.6376 C7.97542857,4.23445714 8.6292,4.23445714 9.03234286,4.63662857 C9.03234286,4.63662857 10.6750286,6.28028571 11.1306286,6.73588571 C11.5862286,7.19148571 11.8232571,6.97097143 11.9738286,6.89617143 C12.1477143,6.80971429 12.3235429,6.72714286 12.5013143,6.64845714 C12.6431429,6.58628571 12.7859429,6.528 12.9306857,6.47165714 C13.09,6.40948571 13.2522286,6.35022857 13.4144571,6.29485714 C13.5951429,6.23365714 13.9642857,6.20937143 13.9642857,5.69257143 C13.9642857,5.17674286 13.9633143,2.59371429 13.9633143,2.59371429 C13.9642857,2.02445714 14.4247429,1.56108571 14.9959429,1.56108571 L19.1245143,1.56108571 C19.6947429,1.56205714 20.1571429,2.02348571 20.1571429,2.59371429 L20.1571429,5.69257143 C20.1571429,6.20062857 20.4631429,6.21422857 20.6137143,6.26377143 C20.808,6.32788571 20.9993714,6.39685714 21.1888,6.47068571 C21.3335429,6.52702857 21.4763429,6.58531429 21.6181714,6.64748571 C21.7852571,6.72034286 21.9494286,6.79805714 22.1116571,6.87868571 C22.2748571,6.95931429 22.5701714,7.15554286 23.0092571,6.71548571 C23.4483429,6.27542857 25.0871429,4.63565714 25.0871429,4.63565714 C25.4902857,4.23348571 26.1430857,4.23251429 26.5462286,4.63565714 L29.4653714,7.55674286 C29.8685143,7.96085714 29.8685143,8.61462857 29.4663429,9.01777143 C29.4663429,9.01777143 27.7624571,10.7216571 27.3806857,11.1053714 C26.9979429,11.4890857 27.1281143,11.8018857 27.2029143,11.9485714 C27.2913143,12.1253714 27.3768,12.3070286 27.4564571,12.4896571 C27.5186286,12.6324571 27.5778857,12.7762286 27.6352,12.9209714 C27.7012571,13.0890286 27.7624571,13.26 27.8207429,13.4319429 C27.8790286,13.6038857 27.9616,13.9536 28.4123429,13.9536 L31.5082857,13.9536 C32.0785143,13.9536 32.5409143,14.416 32.5409143,14.9862286 L32.5418857,19.1167429 L32.5418857,19.1167429 Z" id="Shape"></path>
</svg>