<svg width="16px" height="16px" viewBox="0 0 16 16" version="1.1" xmlns="http://www.w3.org/2000/svg">
    <path d="M16,4.34343434 C16,4.61279461 15.9036559,4.84175084 15.7109677,5.03030303 L8.23741935,12.3434343 L6.83354839,13.7171717 C6.64086022,13.9057239 6.40688172,14 6.1316129,14 C5.85634409,14 5.62236559,13.9057239 5.42967742,13.7171717 L4.02580645,12.3434343 L0.289032258,8.68686869 C0.096344086,8.4983165 0,8.26936027 0,8 C0,7.73063973 0.096344086,7.5016835 0.289032258,7.31313131 L1.69290323,5.93939394 C1.8855914,5.75084175 2.11956989,5.65656566 2.39483871,5.65656566 C2.67010753,5.65656566 2.90408602,5.75084175 3.09677419,5.93939394 L6.1316129,8.91919192 L12.9032258,2.28282828 C13.095914,2.09427609 13.3298925,2 13.6051613,2 C13.8804301,2 14.1144086,2.09427609 14.3070968,2.28282828 L15.7109677,3.65656566 C15.9036559,3.84511785 16,4.07407407 16,4.34343434 Z" id="Shape"></path>
</svg>