<?xml version="1.0" encoding="UTF-8"?>
<svg width="22px" height="22px" viewBox="0 0 22 22" version="1.1" xmlns="http://www.w3.org/2000/svg" xmlns:xlink="http://www.w3.org/1999/xlink">
    <!-- Generator: Sketch 41.2 (35397) - http://www.bohemiancoding.com/sketch -->
    <title>Artboard 14</title>
    <desc>Created with Sketch.</desc>
    <defs></defs>
    <g id="Page-1" stroke="none" stroke-width="1" fill="none" fill-rule="evenodd">
        <g id="Artboard-14" fill="#000000">
            <g id="Group">
                <g transform="translate(3.473684, 6.789474)" id="Shape">
                    <polygon points="5.33557895 8.78073684 12.7495789 1.32273684 12.3142105 0.861894737 5.11673684 8.04663158 1.62915789 4.55326316 1.19147368 5.03263158 4.89905263 8.78073684"></polygon>
                    <polygon points="5.55905263 9.318 4.67557895 9.318 0.452736842 5.04768421 1.61294737 3.77631579 5.11789474 7.28936842 12.3246316 0.0942105263 13.4975789 1.33084211"></polygon>
                </g>
                <g id="Shape">
                    <path d="M10.7533684,21.1304211 L10.7533684,21.1304211 C13.3956842,21.1304211 15.8770526,20.1010526 17.7447368,18.2345263 C19.6112632,16.3691579 20.6406316,13.8854737 20.6406316,11.2454737 C20.6406316,8.60547368 19.6101053,6.12410526 17.7435789,4.25642105 C15.8782105,2.38989474 13.3956842,1.36168421 10.7545263,1.36168421 L10.7533684,1.36168421 C8.11336842,1.36168421 5.63084211,2.38989474 3.76431579,4.25642105 C1.89778947,6.12294737 0.869578947,8.60547368 0.869578947,11.2454737 C0.869578947,13.8854737 1.89778947,16.368 3.76431579,18.2333684 C5.63084211,20.1010526 8.11221053,21.1304211 10.7533684,21.1304211 Z M4.20084211,4.69410526 C5.95042105,2.94336842 8.27778947,1.98 10.7533684,1.98 L10.7545263,1.98 C13.2277895,1.98 15.5574737,2.94452632 17.3058947,4.69410526 C19.0577895,6.44368421 20.0211579,8.77105263 20.0211579,11.2466316 C20.0211579,13.7222105 19.0577895,16.0495789 17.3058947,17.7991579 C15.5574737,19.5510526 13.2289474,20.5144211 10.7533684,20.5144211 L10.7533684,20.5144211 L10.7533684,20.5144211 C8.27778947,20.5144211 5.95157895,19.5510526 4.20084211,17.7991579 C2.45010526,16.0507368 1.48673684,13.7222105 1.48673684,11.2477895 C1.48673684,8.77105263 2.45010526,6.44368421 4.20084211,4.69410526 Z"></path>
                    <path d="M10.7545263,21.6676842 C7.97094737,21.6676842 5.35294737,20.5815789 3.38568421,18.6143158 C1.41726316,16.6470526 0.332315789,14.0313684 0.332315789,11.2466316 C0.332315789,8.46305263 1.41610526,5.84621053 3.38452632,3.87778947 C5.35178947,1.90936842 7.96863158,0.825578947 10.7522105,0.825578947 C13.5381053,0.825578947 16.1549474,1.90936842 18.1210526,3.87778947 C20.0894737,5.84621053 21.1744211,8.46305263 21.1744211,11.2454737 C21.1744211,14.0313684 20.0906316,16.6470526 18.1222105,18.6131579 C16.1549474,20.5815789 13.5381053,21.6676842 10.7545263,21.6676842 Z M10.7545263,2.51494737 C8.42136842,2.51494737 6.22947368,3.42389474 4.58063158,5.07273684 C2.93063158,6.72273684 2.02284211,8.91463158 2.02284211,11.2466316 C2.02284211,13.5786316 2.93063158,15.7716842 4.57947368,17.4193684 C6.22831579,19.0682105 8.42021053,19.976 10.7533684,19.976 C13.0876842,19.976 15.2818947,19.0682105 16.9284211,17.4193684 C18.5784211,15.7716842 19.4850526,13.5786316 19.4850526,11.2454737 C19.4850526,8.91231579 18.5784211,6.72042105 16.9284211,5.07273684 C15.2807368,3.42389474 13.0876842,2.51494737 10.7545263,2.51494737 L10.7545263,2.51494737 Z"></path>
                </g>
            </g>
        </g>
    </g>
</svg>