<?xml version="1.0" encoding="UTF-8"?>
<svg width="24px" height="24px" viewBox="0 0 24 24" version="1.1" xmlns="http://www.w3.org/2000/svg" xmlns:xlink="http://www.w3.org/1999/xlink">
    <!-- Generator: Sketch 41.2 (35397) - http://www.bohemiancoding.com/sketch -->
    <title>Artboard 10</title>
    <desc>Created with Sketch.</desc>
    <defs></defs>
    <g id="Page-1" stroke="none" stroke-width="1" fill="none" fill-rule="evenodd">
        <g id="Artboard-10" fill="#1D1D1B">
            <g id="mid2">
                <g id="Group">
                    <path d="M23.3318182,10.2 L21.9818182,9.94090909 C21.2795455,9.80681818 20.7045455,9.32954545 20.4443182,8.6625 C20.1829545,8 20.2784091,7.26022727 20.7045455,6.68295455 L21.55,5.52727273 C21.7590909,5.24431818 21.7295455,4.85681818 21.4784091,4.60454545 L19.6488636,2.77272727 C19.4136364,2.53977273 19.0204545,2.50340909 18.7522727,2.68977273 L17.6136364,3.45909091 C17.0284091,3.85568182 16.2772727,3.92727273 15.6227273,3.64318182 C14.9693182,3.35909091 14.5125,2.76704545 14.4034091,2.06022727 L14.1863636,0.639772727 C14.1306818,0.293181818 13.8352273,0.0420454545 13.4863636,0.0420454545 L10.8977273,0.0420454545 C10.5590909,0.0420454545 10.2659091,0.282954545 10.2,0.615909091 L9.86363636,2.3625 C9.73181818,3.05 9.26818182,3.61931818 8.62386364,3.88409091 C7.98409091,4.14886364 7.24090909,4.07386364 6.67045455,3.68636364 L5.2,2.69204545 C4.925,2.50340909 4.53522727,2.54090909 4.30113636,2.77613636 L2.47045455,4.60454545 C2.22272727,4.85340909 2.19204545,5.23977273 2.39886364,5.52613636 L3.24659091,6.68295455 C3.66818182,7.25568182 3.76477273,7.99772727 3.50454545,8.66477273 C3.24431818,9.32954545 2.66931818,9.80568182 1.96704545,9.94090909 L0.618181818,10.2011364 C0.285227273,10.2647727 0.0431818182,10.5568182 0.0431818182,10.8977273 L0.0431818182,13.4852273 C0.0431818182,13.8363636 0.295454545,14.1306818 0.644318182,14.1852273 L2.06136364,14.4022727 C2.76818182,14.5125 3.36022727,14.9681818 3.64431818,15.6215909 C3.92954545,16.2772727 3.86136364,17.0215909 3.46136364,17.6125 L2.68977273,18.75 C2.5,19.0318182 2.53636364,19.4079545 2.77727273,19.6488636 L4.60795455,21.4829545 C4.85340909,21.7215909 5.25681818,21.75 5.52727273,21.55 L6.68181818,20.7045455 C7.25340909,20.2875 8.00454545,20.1886364 8.66363636,20.4454545 C9.32954545,20.7056818 9.80681818,21.2795455 9.94090909,21.9829545 L10.2,23.3329545 C10.2647727,23.6659091 10.5579545,23.9068182 10.8977273,23.9068182 L13.4852273,23.9068182 C13.8329545,23.9068182 14.1352273,23.6477273 14.1852273,23.3079545 L14.3386364,22.3113636 C14.45,21.5875 14.9181818,20.9897727 15.5931818,20.7113636 C16.2647727,20.4352273 17.0284091,20.5284091 17.6102273,20.9545455 L18.4227273,21.5511364 C18.5443182,21.6409091 18.6886364,21.6897727 18.8409091,21.6897727 C19.0318182,21.6897727 19.2090909,21.6159091 19.3443182,21.4806818 L21.1738636,19.65 C21.4147727,19.4090909 21.45,19.0306818 21.2579545,18.7522727 L20.4886364,17.6136364 C20.0875,17.0215909 20.0204545,16.2795455 20.3068182,15.6227273 C20.5909091,14.9670455 21.1818182,14.5102273 21.8897727,14.4034091 L23.3068182,14.1863636 C23.6545455,14.1318182 23.9068182,13.8363636 23.9068182,13.4863636 L23.9068182,10.8977273 C23.9068182,10.5590909 23.6659091,10.2647727 23.3318182,10.2 Z M19.0079545,15.0579545 C18.5272727,16.1590909 18.6420455,17.4113636 19.3159091,18.4079545 L19.7602273,19.0625 L18.7715909,20.0488636 L18.4488636,19.8125 C17.4704545,19.0931818 16.1818182,18.9375 15.0511364,19.4034091 C13.9136364,19.875 13.1261364,20.8818182 12.9420455,22.0965909 L12.8806818,22.4931818 L11.4829545,22.4931818 L11.3329545,21.7147727 C11.1056818,20.5329545 10.3022727,19.5659091 9.18181818,19.1284091 C8.075,18.6920455 6.80568182,18.8568182 5.84659091,19.5602273 L5.17954545,20.05 L4.19204545,19.0636364 L4.63522727,18.4079545 C5.31022727,17.4125 5.42613636,16.1602273 4.94545455,15.0602273 C4.46477273,13.9556818 3.46704545,13.1886364 2.27613636,13.0045455 L1.46136364,12.8806818 L1.46136364,11.4829545 L2.23636364,11.3352273 C3.41704545,11.1090909 4.38522727,10.3045455 4.82727273,9.18181818 C5.26477273,8.06363636 5.10227273,6.81704545 4.39204545,5.84659091 L3.90340909,5.18068182 L4.89204545,4.19318182 L5.875,4.85909091 C6.84090909,5.51136364 8.09204545,5.63863636 9.16704545,5.19318182 C10.2534091,4.74204545 11.0340909,3.78295455 11.2568182,2.62954545 L11.4818182,1.46022727 L12.8795455,1.46022727 L13.0034091,2.275 C13.1852273,3.4625 13.9534091,4.46022727 15.0568182,4.94431818 C16.1465909,5.41818182 17.4238636,5.3 18.4079545,4.63409091 L19.0625,4.19090909 L20.0488636,5.17840909 L19.5590909,5.84545455 C18.8488636,6.81477273 18.6863636,8.0625 19.1272727,9.18068182 C19.5670455,10.3034091 20.5329545,11.1079545 21.7136364,11.3340909 L22.4909091,11.4818182 L22.4909091,12.8795455 L21.6727273,13.0034091 C20.4840909,13.1863636 19.4863636,13.9545455 19.0079545,15.0579545 Z" id="Shape"></path>
                    <path d="M12.1920455,7.38295455 C9.54090909,7.38295455 7.38409091,9.53977273 7.38409091,12.1909091 C7.38409091,14.8420455 9.54090909,16.9988636 12.1920455,16.9988636 C14.8431818,16.9988636 17,14.8420455 17,12.1909091 C17,9.53977273 14.8431818,7.38295455 12.1920455,7.38295455 Z M12.1920455,15.5840909 C10.3204545,15.5840909 8.79772727,14.0613636 8.79772727,12.1920455 C8.79772727,10.3204545 10.3204545,8.79772727 12.1920455,8.79772727 C14.0625,8.79772727 15.5840909,10.3204545 15.5840909,12.1920455 C15.5840909,14.0613636 14.0613636,15.5840909 12.1920455,15.5840909 Z" id="Shape"></path>
                    <path d="M12.1920455,9.54090909 C10.7306818,9.54090909 9.54090909,10.7306818 9.54090909,12.1920455 C9.54090909,13.6534091 10.7306818,14.8409091 12.1920455,14.8409091 C13.6534091,14.8409091 14.8409091,13.6534091 14.8409091,12.1920455 C14.8409091,10.7306818 13.6534091,9.54090909 12.1920455,9.54090909 Z M12.1920455,13.4261364 C11.5113636,13.4261364 10.9568182,12.8727273 10.9568182,12.1909091 C10.9568182,11.5102273 11.5113636,10.9556818 12.1920455,10.9556818 C12.8738636,10.9556818 13.4272727,11.5102273 13.4272727,12.1909091 C13.4261364,12.8727273 12.8727273,13.4261364 12.1920455,13.4261364 Z" id="Shape"></path>
                </g>
            </g>
        </g>
    </g>
</svg>