<svg width="34px" height="34px" viewBox="0 0 34 34" version="1.1" xmlns="http://www.w3.org/2000/svg" xmlns:xlink="http://www.w3.org/1999/xlink">
    <polygon points="13.656 24.437 26.405 11.61 25.656 10.82 13.282 23.179 7.283 17.165 6.53 17.99 12.904 24.437"></polygon>
    <path d="M16.999,34 L16.999,34 C21.545,34 25.812,32.23 29.02,29.021 C32.232,25.812 34,21.541 34,17 C34,12.461 32.228,8.188 29.02,4.979 C25.812,1.77 21.545,0 16.999,0 L16.999,0 C12.458,0 8.188,1.77 4.978,4.979 C1.769,8.189 0,12.461 0,17 C0,21.545 1.769,25.812 4.979,29.023 C8.188,32.23 12.458,34 16.999,34 Z M5.729,5.73 C8.738,2.72 12.743,1.062 16.999,1.062 L16.999,1.062 C21.257,1.062 25.262,2.72 28.27,5.73 C31.281,8.74 32.935,12.744 32.935,17 C32.935,21.258 31.281,25.259 28.27,28.271 C25.261,31.283 21.256,32.937 16.999,32.937 L16.999,32.937 L16.999,32.937 C12.74,32.937 8.738,31.283 5.729,28.271 C2.718,25.262 1.06,21.257 1.064,17 C1.063,12.744 2.719,8.74 5.729,5.73 Z"></path>
</svg>