<svg width="34px" height="34px" viewBox="0 0 34 34" version="1.1" xmlns="http://www.w3.org/2000/svg">
    <path d="M32.9877714,19.6792 L25.5106857,12.2021143 L25.5165143,12.2079429 C25.7253714,11.4337143 25.8477714,10.6216 25.8477714,9.78034286 C25.8477714,4.64731429 21.6871429,0.485714286 16.5541143,0.485714286 C15.6953714,0.485714286 14.8677143,0.612 14.0789143,0.8296 C13.7428,0.608114286 13.3474286,0.485714286 12.9394286,0.485714286 L2.61314286,0.485714286 C1.47171429,0.485714286 0.547885714,1.41051429 0.547885714,2.55097143 L0.547885714,12.8782286 C0.547885714,13.4251429 0.766457143,13.9516571 1.15308571,14.3382857 L19.7423429,32.9265714 C20.1445143,33.3297143 20.6739429,33.5317714 21.2024,33.5317714 C21.7308571,33.5317714 22.2602857,33.3297143 22.6624571,32.9265714 L32.9897143,22.5993143 C33.7950286,21.7930286 33.7950286,20.4864571 32.9877714,19.6792 Z M16.5531429,1.51931429 C21.1159429,1.51931429 24.8151429,5.21851429 24.8151429,9.78131429 C24.8151429,10.2990857 24.7549143,10.8596 24.6636,11.3550286 L23.7494857,10.4409143 L23.7368571,10.4273143 C23.7562857,10.2213714 23.7825143,9.97754286 23.7825143,9.78034286 C23.7825143,5.78874286 20.5466857,2.55194286 16.5541143,2.55194286 C16.3316571,2.55194286 16.1121143,2.56554286 15.8935429,2.58497143 C15.47,2.62382857 15.0590857,2.70251429 14.6598286,2.81131429 C12.8393714,3.3048 11.3084,4.48897143 10.3602857,6.06851429 C10.1825143,6.3648 10.0193143,6.66982857 9.88525714,6.99234286 C9.52582857,7.85011429 9.32571429,8.7924 9.32571429,9.78131429 C9.32571429,10.0999429 9.39274286,10.7197143 9.39274286,10.7197143 C9.39274286,10.7197143 9.01291429,10.8129714 8.80891429,10.8129714 C8.65251429,10.8129714 8.50194286,10.7925714 8.35622857,10.7595429 C8.33874286,10.7556571 8.3368,10.7556571 8.35622857,10.7595429 C8.31834286,10.438 8.29308571,10.1125714 8.29308571,9.78034286 C8.29308571,8.68651429 8.51068571,7.64611429 8.89634286,6.6912 C9.03428571,6.34925714 9.19457143,6.02091429 9.37428571,5.70325714 C10.3544571,3.97994286 11.9369143,2.64908571 13.8350857,1.98657143 C14.2061714,1.8564 14.5879429,1.74857143 14.9813714,1.6728 C15.4904,1.57468571 16.0149714,1.51931429 16.5531429,1.51931429 Z M22.7314286,9.42285714 L16.9106286,3.60205714 C20.0464,3.78177143 22.5517143,6.28708571 22.7314286,9.42285714 Z M10.8741714,8.74771429 C10.8741714,9.25965714 10.6828,9.72108571 10.3729143,10.0795429 C10.3680571,9.98045714 10.3583429,9.88234286 10.3583429,9.78131429 C10.3583429,9.11005714 10.4681143,8.46502857 10.6662857,7.85885714 C10.7954857,8.12794286 10.8741714,8.42811429 10.8741714,8.74771429 Z M7.25948571,9.78034286 C7.25948571,9.88914286 7.27114286,9.996 7.276,10.1038286 C6.95057143,9.74051429 6.74365714,9.27325714 6.74365714,8.74674286 C6.74365714,8.02497143 7.11474286,7.3916 7.67622857,7.02245714 C7.40422857,7.89382857 7.25948571,8.8196 7.25948571,9.78034286 Z M32.2572571,21.8697714 L21.93,32.1970286 C21.7357143,32.3922857 21.4763429,32.5001143 21.2004571,32.5001143 C20.9245714,32.5001143 20.6661714,32.3922857 20.4709143,32.1970286 L1.88165714,13.6077714 C1.68931429,13.4144571 1.57954286,13.1482857 1.57954286,12.8782286 L1.57954286,2.55194286 C1.57954286,1.98268571 2.04291429,1.51931429 2.61217143,1.51931429 L12.3089714,1.51931429 C10.5293143,2.43634286 9.08965714,3.90805714 8.20857143,5.71005714 C6.78542857,5.98982857 5.71005714,7.24297143 5.71005714,8.74868571 C5.71005714,10.4603429 7.09725714,11.8465714 8.80794286,11.8465714 C10.5196,11.8465714 11.9058286,10.4593714 11.9058286,8.74868571 C11.9058286,7.98028571 11.6250857,7.27794286 11.1607429,6.73685714 C12.0632,5.14177143 13.6505143,3.9916 15.5244,3.67782857 L32.2572571,20.4097143 C32.4525143,20.6049714 32.5603429,20.8643429 32.5603429,21.1392571 C32.5603429,21.4141714 32.4525143,21.6745143 32.2572571,21.8697714 Z" id="Shape"></path>
    <path d="M26.4267429,19.9376 C25.8225143,19.3372571 24.8404,19.3362857 24.2361714,19.9366286 L20.1134286,24.0370286 C19.5092,24.6373714 19.4878286,25.6369714 20.0920571,26.2373143 C20.6953143,26.8376571 21.6968571,26.8192 22.3010857,26.2188571 L26.4277143,22.1155429 L26.4267429,22.1155429 C27.03,21.5152 27.03,20.5379429 26.4267429,19.9376 Z M25.6962286,21.3898857 L21.5861143,25.4776571 C21.3840571,25.6787429 21.0226857,25.7127429 20.8216,25.5116571 C20.6195429,25.3105714 20.6457714,24.9598857 20.8478286,24.7597714 L24.9657143,20.6642286 C25.1677714,20.4631429 25.4941714,20.4631429 25.6952571,20.6642286 C25.8973143,20.8633714 25.8973143,21.1897714 25.6962286,21.3898857 Z" id="Shape"></path>
    <path d="M22.2962286,18.0083429 C22.9004571,17.408 22.9004571,16.4297714 22.2972,15.8294286 C21.6929714,15.2290857 20.7108571,15.2281143 20.1066286,15.8284571 L15.9838857,19.9288571 C15.3796571,20.5292 15.3582857,21.5288 15.9625143,22.1291429 C16.5657714,22.7294857 17.5673143,22.7110286 18.1715429,22.1106857 L22.2981714,18.0073714 L22.2962286,18.0073714 L22.2962286,18.0083429 Z M21.5657143,17.2826857 L17.4556,21.3704571 C17.2535429,21.5715429 16.8921714,21.6055429 16.6910857,21.4044571 C16.4890286,21.2033714 16.5152571,20.8526857 16.7173143,20.6525714 L20.8352,16.5570286 C21.0372571,16.3559429 21.3636571,16.3559429 21.5647429,16.5570286 C21.7677714,16.7561714 21.7677714,17.0816 21.5657143,17.2826857 Z" id="Shape"></path>
    <path d="M18.1628,13.8982286 C18.7670286,13.2978857 18.7670286,12.3196571 18.1637714,11.7193143 C17.5595429,11.1189714 16.5774286,11.118 15.9732,11.7183429 L11.8504571,15.8187429 C11.2462286,16.4190857 11.2248571,17.4186857 11.8290857,18.0190286 C12.4323429,18.6193714 13.4338857,18.6009143 14.0381143,18.0005714 L18.1647429,13.8972571 L18.1628,13.8972571 L18.1628,13.8982286 Z M17.4332571,13.1725714 L13.3231429,17.2603429 C13.1210857,17.4614286 12.7597143,17.4954286 12.5586286,17.2943429 C12.3565714,17.0932571 12.3828,16.7425714 12.5848571,16.5424571 L16.7027429,12.4469143 C16.9048,12.2458286 17.2312,12.2458286 17.4322857,12.4469143 C17.6353143,12.6460571 17.6353143,12.9714857 17.4332571,13.1725714 Z" id="Shape"></path>
</svg>