<?xml version="1.0" encoding="UTF-8"?>
<svg width="34px" height="34px" viewBox="0 0 34 34" version="1.1" xmlns="http://www.w3.org/2000/svg" xmlns:xlink="http://www.w3.org/1999/xlink">
    <!-- Generator: Sketch 41.2 (35397) - http://www.bohemiancoding.com/sketch -->
    <title>Artboard 5</title>
    <desc>Created with Sketch.</desc>
    <defs></defs>
    <g id="Page-1" stroke="none" stroke-width="1" fill="none" fill-rule="evenodd">
        <g id="Artboard-5" fill="#000000">
            <g id="user" transform="translate(2.000000, 0.000000)">
                <g id="Group">
                    <path d="M27.4911875,26.8841447 L21.130375,23.9130592 C20.533625,23.6300082 20.1596875,23.0677056 20.1596875,22.4408141 L20.1596875,20.3359786 C20.3108125,20.1593092 20.471625,19.9636431 20.6401875,19.7432813 C21.463625,18.6509704 22.122375,17.4389803 22.6048125,16.1320066 C23.5425625,15.7292763 24.152875,14.8611266 24.152875,13.8808964 L24.152875,11.388528 C24.152875,10.7901316 23.9145625,10.2069326 23.4883125,9.75481086 L23.4883125,6.44178454 C23.5270625,6.09984375 23.6704375,4.06149671 22.0933125,2.38028783 C20.7254375,0.919440789 18.510875,0.178569079 15.5,0.178569079 C12.4910625,0.178569079 10.272625,0.919440789 8.90475,2.37838816 C7.327625,4.05959704 7.474875,6.09984375 7.5116875,6.44178454 L7.5116875,9.75481086 C7.0854375,10.2069326 6.8451875,10.7882319 6.8451875,11.388528 L6.8451875,13.8808964 C6.8451875,14.6369655 7.2133125,15.3455428 7.843,15.8166612 C8.4533125,18.0772697 9.7281875,19.7755757 10.17575,20.3226809 L10.17575,22.383824 C10.17575,22.9879194 9.823125,23.538824 9.257375,23.8294737 L3.320875,26.8613487 C1.3891875,27.8453783 0.1918125,29.7336513 0.1918125,31.7909951 L0.1918125,33.8103454 C0.1918125,33.8806332 0.197625,33.9509211 0.20925,34.0231086 L1.6139375,34.0231086 C1.553875,33.9490214 1.522875,33.8768339 1.522875,33.8103454 L1.522875,31.7909951 C1.522875,30.191472 2.4548125,28.719227 3.9583125,27.9517599 L9.8948125,24.9217845 C10.88875,24.416472 11.504875,23.4438405 11.504875,22.383824 L11.504875,19.8819572 L11.349875,19.7090872 C11.334375,19.6881908 9.703,17.8474095 9.0810625,15.309449 L9.0229375,15.0605921 L8.7943125,14.9219161 C8.40875,14.6882566 8.1781875,14.298824 8.1781875,13.8789967 L8.1781875,11.388528 C8.1781875,11.0389885 8.3370625,10.7141447 8.6238125,10.4709868 L8.84275,10.2848191 L8.84275,6.40759046 L8.838875,6.32400493 C8.8369375,6.30690789 8.61025,4.58390625 9.9064375,3.19904605 C11.0108125,2.02125 12.892125,1.42475329 15.5,1.42475329 C18.100125,1.42475329 19.9795,2.01745066 21.0819375,3.18384868 C22.378125,4.55541118 22.165,6.31070724 22.165,6.32210526 L22.1553125,10.2829194 L22.3761875,10.4690872 C22.661,10.7103454 22.819875,11.0370888 22.819875,11.3866283 L22.819875,13.8789967 C22.819875,14.4223026 22.440125,14.8972204 21.8763125,15.0605921 L21.5430625,15.1555757 L21.4345625,15.465222 C20.990875,16.758898 20.355375,17.9575905 19.5513125,19.0214063 C19.35175,19.2854605 19.1599375,19.5191201 18.9933125,19.6938898 L18.8266875,19.8743586 L18.8266875,22.4427138 C18.8266875,23.5426234 19.4815625,24.5342516 20.5355625,25.0281661 L26.8944375,28.0011513 C28.485125,28.747722 29.47325,30.2408635 29.47325,31.9106743 L29.47325,33.8065461 C29.47325,33.8730345 29.4441875,33.945222 29.3860625,34.0193092 L30.79075,34.0193092 C30.802375,33.9471217 30.8081875,33.8768339 30.8081875,33.8065461 L30.8081875,31.9106743 C30.8081875,29.7697451 29.5371875,27.8434786 27.4911875,26.8841447 Z" id="Shape"></path>
                    <path d="M30.9554375,34.1940789 L29.0024375,34.1940789 L29.2349375,33.911028 C29.283375,33.8502385 29.28725,33.8179441 29.28725,33.8046464 L29.28725,31.9087747 C29.28725,30.307352 28.3359375,28.8712007 26.8091875,28.158824 L20.4503125,25.1877385 C19.3343125,24.6615296 18.634875,23.6110115 18.634875,22.4408141 L18.634875,19.8021711 L18.848,19.5761102 C19.0126875,19.4032401 19.200625,19.1790789 19.3924375,18.918824 C20.1868125,17.8683059 20.812625,16.6886102 21.254375,15.4101316 L21.3919375,15.0131003 L21.8181875,14.8915214 C22.3025625,14.7509457 22.6280625,14.3444161 22.6280625,13.8808964 L22.6280625,11.388528 C22.6280625,11.0921793 22.494375,10.811028 22.2483125,10.6039638 L21.9654375,10.3646053 L21.9731875,6.31070724 C21.9809375,6.23662007 22.1475625,4.58580592 20.9424375,3.3073273 C19.8729375,2.17702303 18.0439375,1.60332237 15.5,1.60332237 C12.9483125,1.60332237 11.1154375,2.1789227 10.0498125,3.31492599 C8.8330625,4.61620066 9.0190625,6.23472039 9.02875,6.30310855 L9.0306875,6.31260691 L9.0365,6.40759046 L9.0365,10.3646053 L8.753625,10.6020641 C8.505625,10.811028 8.37,11.0902796 8.37,11.388528 L8.37,13.8808964 C8.37,14.2399342 8.567625,14.5742763 8.897,14.7737418 L9.1895625,14.9504112 L9.269,15.2695559 C9.8754375,17.7353289 11.435125,19.5191201 11.4990625,19.5894079 L11.7005625,19.8135691 L11.7005625,22.3819243 C11.7005625,23.5084293 11.04375,24.5399507 9.98975,25.0775576 L4.049375,28.1056332 C2.607875,28.8427056 1.7146875,30.2503618 1.7146875,31.7871957 L1.7146875,33.8065461 C1.7146875,33.8198437 1.7185625,33.8502385 1.7650625,33.9129276 L1.995625,34.1940789 L0.0445625,34.1940789 L0.019375,34.0440049 C0.0058125,33.9642188 0,33.8806332 0,33.8046464 L0,31.7852961 C0,29.6671628 1.236125,27.714301 3.2298125,26.6960773 L9.1663125,23.666102 C9.6700625,23.4077467 9.982,22.9138322 9.982,22.378125 L9.982,20.3796711 C9.4569375,19.7261842 8.273125,18.0848684 7.6744375,15.9116447 C7.025375,15.4063322 6.6553125,14.6673602 6.6553125,13.8789967 L6.6553125,11.388528 C6.6553125,10.7692352 6.893625,10.1689391 7.319875,9.68832237 L7.319875,6.45128289 C7.27725,6.02955592 7.157125,3.97221217 8.761375,2.26060855 C10.1660625,0.759868421 12.4329375,0 15.5,0 C18.5631875,0 20.832,0.759868421 22.2405625,2.26060855 C23.8448125,3.97411184 23.7246875,6.02955592 23.6781875,6.45128289 L23.6781875,9.68832237 C24.11025,10.1689391 24.346625,10.7692352 24.346625,11.388528 L24.346625,13.8808964 C24.346625,14.887722 23.726625,15.8147615 22.7598125,16.2611842 C22.2793125,17.5548602 21.6166875,18.7611513 20.79325,19.8477632 C20.6440625,20.0472286 20.4929375,20.2333964 20.3534375,20.3986678 L20.3534375,22.4408141 C20.3534375,22.9993174 20.6828125,23.5008306 21.2175625,23.7515872 L27.578375,26.7226727 C29.69025,27.7162007 31,29.6994572 31,31.9087747 L31,33.8046464 C31,33.8806332 30.99225,33.9642188 30.980625,34.0440049 L30.9554375,34.1940789 Z M29.6689375,33.8388405 L30.6183125,33.8388405 L30.6183125,33.8027467 L30.6183125,31.906875 C30.6183125,29.8343339 29.388,27.9707566 27.4059375,27.0437171 L21.0470625,24.0707319 C20.3825,23.7591859 19.967875,23.1322944 19.967875,22.4389145 L19.967875,20.2694901 L20.0105,20.2200987 C20.1596875,20.0529276 20.3185625,19.8553618 20.4813125,19.6387993 C21.2950625,18.5616859 21.948,17.3629934 22.4226875,16.0731168 L22.4498125,16.0009293 L22.525375,15.9686349 C23.4108125,15.5887007 23.9610625,14.7870395 23.9610625,13.8808964 L23.9610625,11.388528 C23.9610625,10.833824 23.742125,10.2962171 23.3449375,9.87259046 L23.2965,9.82129934 L23.2984375,6.42278783 C23.339125,6.0504523 23.463125,4.11088816 21.9499375,2.49616776 C20.62275,1.07711349 18.4508125,0.359037829 15.5,0.359037829 C12.5491875,0.359037829 10.37725,1.07711349 9.048125,2.49616776 C7.536875,4.10898849 7.6628125,6.05235197 7.7035,6.42278783 L7.7054375,6.43988487 L7.7054375,9.82129934 L7.657,9.87069079 C7.257875,10.2962171 7.0389375,10.833824 7.0389375,11.388528 L7.0389375,13.8808964 C7.0389375,14.5799753 7.374125,15.2353618 7.963125,15.6760855 L8.0135,15.7140789 L8.0270625,15.7710691 C8.637375,18.0278783 9.9413125,19.7432813 10.326875,20.2125 L10.3675625,20.2599918 L10.3675625,22.3800247 C10.3675625,23.0506086 9.978125,23.660403 9.3523125,23.983347 L3.4119375,27.0133224 C1.5441875,27.9669572 0.383625,29.7982401 0.383625,31.7871957 L0.383625,33.8065461 C0.383625,33.8160444 0.3855625,33.8274424 0.3855625,33.8426398 L1.333,33.8426398 L1.333,33.8065461 L1.333,31.7871957 C1.333,30.1230839 2.3036875,28.5900493 3.8691875,27.7902878 L9.807625,24.7603125 C10.7395625,24.2891941 11.318875,23.3754523 11.318875,22.3800247 L11.318875,19.9446464 L11.2084375,19.8192681 C11.1386875,19.7432813 9.52475,17.8949013 8.8989375,15.3474424 L8.8524375,15.170773 L8.6896875,15.0719901 C8.2479375,14.8060362 7.986375,14.3596135 7.986375,13.8789967 L7.986375,11.388528 C7.986375,10.989597 8.1665625,10.6153618 8.4959375,10.3380099 L8.652875,10.2050329 L8.652875,6.4113898 L8.6470625,6.34110197 C8.6354375,6.22522204 8.451375,4.47942434 9.761125,3.08126645 C10.90425,1.8635773 12.834,1.24618421 15.5,1.24618421 C18.1563125,1.24618421 20.084125,1.85977796 21.223375,3.06606908 C22.506,4.41863487 22.378125,6.10744243 22.3529375,6.33350329 L22.3451875,10.2050329 L22.5040625,10.3380099 C22.8295625,10.6153618 23.013625,10.9876974 23.013625,11.388528 L23.013625,13.8808964 C23.013625,14.5020888 22.579625,15.0472944 21.9305625,15.2334622 L21.696125,15.2999507 L21.6205625,15.5203125 C21.1710625,16.8348849 20.525875,18.0487747 19.70825,19.1258882 C19.50675,19.3937418 19.3071875,19.6331003 19.138625,19.8135691 L19.0204375,19.9370477 L19.0204375,22.4389145 C19.0204375,23.4704359 19.63075,24.4012747 20.6208125,24.8628947 L26.97775,27.8377796 C28.63625,28.6109457 29.667,30.168676 29.667,31.906875 L29.667,33.8027467 C29.6689375,33.8141447 29.6689375,33.8255428 29.6689375,33.8388405 Z" id="Shape"></path>
                </g>
                <rect id="Rectangle-path" x="0.20925" y="32.7256332" width="30.5059375" height="1.46844572"></rect>
            </g>
        </g>
    </g>
</svg>