<?xml version="1.0" encoding="UTF-8"?>
<svg width="2258px" height="2258px" viewBox="0 0 2258 2258" version="1.1" xmlns="http://www.w3.org/2000/svg">
    <path d="M1770,682 L1386,1386 L2154,1386 L1770,682 Z M490,682 L106,1386 L874,1386 L490,682 Z M1311,490 C1301.66667,516.666667 1286.5,540.5 1265.5,561.5 C1244.5,582.5 1220.66667,597.666667 1194,607 L1194,1898 L1802,1898 C1811.33333,1898 1819,1901 1825,1907 C1831,1913 1834,1920.66667 1834,1930 L1834,1994 C1834,2003.33333 1831,2011 1825,2017 C1819,2023 1811.33333,2026 1802,2026 L458,2026 C448.666667,2026 441,2023 435,2017 C429,2011 426,2003.33333 426,1994 L426,1930 C426,1920.66667 429,1913 435,1907 C441,1901 448.666667,1898 458,1898 L1066,1898 L1066,607 C1039.33333,597.666667 1015.5,582.5 994.5,561.5 C973.5,540.5 958.333333,516.666667 949,490 L458,490 C448.666667,490 441,487 435,481 C429,475 426,467.333333 426,458 L426,394 C426,384.666667 429,377 435,371 C441,365 448.666667,362 458,362 L949,362 C963,324 986.333333,293.166667 1019,269.5 C1051.66667,245.833333 1088.66667,234 1130,234 C1171.33333,234 1208.33333,245.833333 1241,269.5 C1273.66667,293.166667 1297,324 1311,362 L1802,362 C1811.33333,362 1819,365 1825,371 C1831,377 1834,384.666667 1834,394 L1834,458 C1834,467.333333 1831,475 1825,481 C1819,487 1811.33333,490 1802,490 L1311,490 Z M1130,506 C1152,506 1170.83333,498.166667 1186.5,482.5 C1202.16667,466.833333 1210,448 1210,426 C1210,404 1202.16667,385.166667 1186.5,369.5 C1170.83333,353.833333 1152,346 1130,346 C1108,346 1089.16667,353.833333 1073.5,369.5 C1057.83333,385.166667 1050,404 1050,426 C1050,448 1057.83333,466.833333 1073.5,482.5 C1089.16667,498.166667 1108,506 1130,506 Z M2218,1386 C2218,1434.66667 2202.5,1478.33333 2171.5,1517 C2140.5,1555.66667 2101.33333,1586 2054,1608 C2006.66667,1630 1958.5,1646.5 1909.5,1657.5 C1860.5,1668.5 1814,1674 1770,1674 C1726,1674 1679.5,1668.5 1630.5,1657.5 C1581.5,1646.5 1533.33333,1630 1486,1608 C1438.66667,1586 1399.5,1555.66667 1368.5,1517 C1337.5,1478.33333 1322,1434.66667 1322,1386 C1322,1378.66667 1333.66667,1351.66667 1357,1305 C1380.33333,1258.33333 1411,1200.16667 1449,1130.5 C1487,1060.83333 1522.66667,995.666667 1556,935 C1589.33333,874.333333 1623.33333,813 1658,751 C1692.66667,689 1711.33333,655.666667 1714,651 C1726,629 1744.66667,618 1770,618 C1795.33333,618 1814,629 1826,651 C1828.66667,655.666667 1847.33333,689 1882,751 C1916.66667,813 1950.66667,874.333333 1984,935 C2017.33333,995.666667 2053,1060.83333 2091,1130.5 C2129,1200.16667 2159.66667,1258.33333 2183,1305 C2206.33333,1351.66667 2218,1378.66667 2218,1386 Z M938,1386 C938,1434.66667 922.5,1478.33333 891.5,1517 C860.5,1555.66667 821.333333,1586 774,1608 C726.666667,1630 678.5,1646.5 629.5,1657.5 C580.5,1668.5 534,1674 490,1674 C446,1674 399.5,1668.5 350.5,1657.5 C301.5,1646.5 253.333333,1630 206,1608 C158.666667,1586 119.5,1555.66667 88.5,1517 C57.5,1478.33333 42,1434.66667 42,1386 C42,1378.66667 53.6666667,1351.66667 77,1305 C100.333333,1258.33333 131,1200.16667 169,1130.5 C207,1060.83333 242.666667,995.666667 276,935 C309.333333,874.333333 343.333333,813 378,751 C412.666667,689 431.333333,655.666667 434,651 C446,629 464.666667,618 490,618 C515.333333,618 534,629 546,651 C548.666667,655.666667 567.333333,689 602,751 C636.666667,813 670.666667,874.333333 704,935 C737.333333,995.666667 773,1060.83333 811,1130.5 C849,1200.16667 879.666667,1258.33333 903,1305 C926.333333,1351.66667 938,1378.66667 938,1386 Z" id="Shape"></path>
</svg>