<svg width="60px" height="60px" viewBox="0 0 60 60" version="1.1" xmlns="http://www.w3.org/2000/svg">
    <path d="M52.4713061,30.7040995 C55.9470142,34.2094351 54.9278289,39.9668164 49.3698324,41.8243962 L48.278267,42.1892165 L48.7919393,43.2191435 C50.2338467,46.1102069 50.1203281,48.0649172 48.8315043,49.3114596 C47.6571261,50.447311 45.4440944,51.0630345 42.7380741,51.0630345 L41.9560841,51.0630345 L41.7675672,51.8219612 C40.954036,55.0970554 37.6529702,56.8888368 34.6433504,56.8658223 C32.5243011,56.8518794 31.000963,55.3406997 31.000963,53.2226207 L31.000963,8.70358621 C31.000963,4.27948217 31.8946695,3.1342069 34.6357037,3.1342069 C40.1925067,3.1342069 44.3317964,6.11631363 45.263482,9.37528518 L45.4456883,10.0126301 L46.1036726,10.0930309 C53.3757896,10.9816296 57.0951042,19.5467365 52.2800727,29.5668768 L51.974409,30.2029668 L52.4713061,30.7040995 Z M46.9781949,8.20200006 C45.5003667,4.33930044 40.7422371,1.1342069 34.6357037,1.1342069 C30.6663009,1.1342069 29.000963,3.26831959 29.000963,8.70358621 L29.000963,53.2226207 C29.000963,56.4467043 31.4181967,58.844645 34.6291243,58.8657715 C38.2373074,58.8933637 42.1425249,56.890882 43.4865916,53.0487815 C46.334646,52.9387447 48.7320923,52.1900293 50.2219402,50.7490576 C52.0254777,49.0046873 52.3325186,46.4660781 51.0358193,43.3217675 C56.9104343,40.7155765 58.0541612,34.1288006 54.3701067,29.8156383 C59.1685222,19.1585751 55.1274421,9.64003355 46.9781949,8.20200006 Z" id="Shape"></path>
    <path d="M52.3948013,28.6113905 C52.3691768,28.7203027 52.2838473,28.9645976 52.1161601,29.2990995 C51.8238694,29.8821599 51.4037107,30.4705132 50.8321061,31.0236649 C49.1501516,32.6513217 46.5395166,33.6441379 42.739037,33.6441379 L42.739037,35.6441379 C47.0442981,35.6441379 50.156552,34.4605576 52.2229308,32.4608868 C53.4999347,31.2251079 54.130324,29.9676096 54.3416431,29.0694371 L52.3948013,28.6113905 Z" id="Shape"></path>
    <path d="M38.2637037,16.0666207 C38.2637037,20.100934 42.1842325,24.0318621 48.5274074,24.0318621 L48.5274074,22.0318621 C43.2899898,22.0318621 40.2637037,18.9975487 40.2637037,16.0666207 L38.2637037,16.0666207 Z" id="Shape"></path>
    <path d="M8.91273326,43.2979433 C6.47091487,48.7552069 10.5521092,53.8039889 16.5102503,54.197929 C17.2145753,56.2024154 18.6150538,57.5119172 20.5310871,58.2147007 C21.9724469,58.7433782 23.2645602,58.8677241 25.3642963,58.8677241 C28.5746926,58.8677241 31,56.4540017 31,53.2226207 L31,8.70551724 C31,3.26836434 29.3358444,1.13517241 25.3642963,1.13517241 C19.257888,1.13517241 14.501973,4.33953518 13.0221547,8.2036979 C4.86658653,9.64039671 0.826438565,19.1716101 5.64207703,29.8384987 C2.13054073,34.2273942 3.16122053,40.7011694 8.91273326,43.2979433 Z M7.55661361,30.6768781 L8.01549707,30.1778491 L7.72182443,29.5668168 C2.90572126,19.5461544 6.62398895,10.9814232 13.8960364,10.0949974 L14.5538684,10.014811 L14.7363696,9.37773482 C15.6706436,6.11636718 19.8077908,3.13517241 25.3642963,3.13517241 C28.1073252,3.13517241 29,4.27944446 29,8.70551724 L29,53.2226207 C29,55.3472828 27.4722611,56.8677241 25.3642963,56.8677241 C21.1903083,56.8677241 18.9976629,56.0634819 18.2324564,52.9816425 L18.0439948,52.2226207 L17.2619259,52.2226207 C11.9178598,52.2226207 8.44072202,47.851598 11.1713913,43.2861328 L11.8098566,42.2186689 L10.6301676,41.8243962 C5.1540269,39.9941741 4.21824995,34.3072999 7.55661361,30.6768781 Z" id="Shape"></path>
    <path d="M21.4276672,28.1179138 C21.0549853,27.761289 20.3774732,27.2665605 19.4011765,26.7828471 C17.8027819,25.9909107 15.9252485,25.5173793 13.7865926,25.5173793 C11.8292445,25.5173793 9.96736438,26.2428672 8.2528283,27.4384202 C7.2405476,28.1442876 6.49304595,28.8517037 6.06530932,29.3445162 L7.57572772,30.6554838 C7.64967097,30.5702909 7.80806205,30.4033574 8.0418002,30.1821538 C8.4387219,29.8065174 8.89374453,29.4297298 9.39678282,29.0789591 C10.8037514,28.0978742 12.293524,27.5173793 13.7865926,27.5173793 C15.6047516,27.5173793 17.1812459,27.9149858 18.5132679,28.574946 C18.9734259,28.8029346 19.3684592,29.0454333 19.6965978,29.2850445 C19.8833352,29.4214027 20.0000652,29.5199864 20.0449254,29.5629138 L21.4276672,28.1179138 Z" id="Shape"></path>
    <path d="M21.7276296,46.2554483 C21.7276357,45.5919706 21.7037992,45.056562 21.6109543,44.3422656 C21.4709962,43.2655064 21.206124,42.2130373 20.780405,41.2172801 C19.5989064,38.4537541 17.371028,36.5535044 13.9379122,35.9798801 L13.6083101,37.9525337 C16.3371243,38.4084794 18.017026,39.841337 18.9414242,42.0035051 C19.2890332,42.8165629 19.5098811,43.6941015 19.6276382,44.6000588 C19.7072261,45.2123633 19.7276349,45.670781 19.7276296,46.2510897 L21.7276296,46.2554483 Z" id="Shape"></path>
    <path d="M22.0454815,13.7445517 C22.0454815,14.2874616 21.7067092,15.1234538 21.0371341,15.7958432 C20.0465264,16.7906146 18.4466049,17.3886897 16.1025185,17.3886897 L16.1025185,19.3886897 C21.287872,19.3886897 24.0454815,16.6194896 24.0454815,13.7445517 L22.0454815,13.7445517 Z" id="Shape"></path>
    <path d="M43.0545678,51.1118651 C39.6283133,49.9648456 37.9477778,47.7988547 37.9477778,43.9333793 L35.9477778,43.9333793 C35.9477778,48.6891849 38.2039582,51.5971069 42.4196544,53.0084107 L43.0545678,51.1118651 Z" id="Shape"></path>
</svg>