<svg width="58px" height="58px" viewBox="0 0 58 58" version="1.1" xmlns="http://www.w3.org/2000/svg">
    <path d="M53.4795025,14.2228747 C50.9855767,14.2228747 48.9559671,16.2425104 48.9559671,18.7254209 C48.9559671,19.8235537 49.3675663,20.8177272 50.0265304,21.6019636 L41.1771488,30.790751 L38.8363054,14.8304813 C40.7533842,14.3066477 42.1737054,12.5776942 42.1737054,10.5035555 C42.1737054,8.02064504 40.1451096,6 37.6521975,6 C35.1562441,6 33.1256207,8.02064504 33.1256207,10.5035555 C33.1256207,12.4616232 34.3979284,14.1179061 36.1578696,14.7335872 L28.5909336,28.9820618 L20.8942324,14.7033078 C22.6014564,14.056338 23.8230746,12.4232693 23.8230746,10.5035555 C23.8230746,8.02064504 21.793465,6 19.2975116,6 C16.8035857,6 14.77499,8.02064504 14.77499,10.5035555 C14.77499,12.6422902 16.283511,14.4318025 18.2958861,14.8880121 L16.72451,30.8432353 L7.41993629,22.1591045 C8.40838251,21.3334863 9.04707083,20.1091893 9.04707083,18.7274396 C9.04707083,16.2445291 7.01847505,14.2248933 4.52454921,14.2248933 C2.02960957,14.2248933 0,16.2445291 0,18.7274396 C0,21.2113594 2.02960957,23.2320044 4.52454921,23.2320044 C4.72730741,23.2320044 4.92195528,23.1997064 5.11660315,23.1724549 L13.5837855,49.3005459 C13.7186197,49.7173923 14.1099431,50 14.5489146,50 L42.7647455,50 C43.2097998,50 43.6041645,49.7093178 43.7349435,49.2843969 L51.7976233,22.9009497 C52.3187119,23.1078589 52.8823796,23.2289765 53.4764612,23.2289765 C55.970387,23.2289765 57.9999966,21.2083314 57.9999966,18.7244116 C58.003038,16.2425104 55.9734284,14.2228747 53.4795025,14.2228747 Z M2.03163715,18.7254209 C2.03163715,17.3567922 3.15086241,16.2415011 4.52860437,16.2415011 C5.90330496,16.2415011 7.02354401,17.3557829 7.02354401,18.7254209 C7.02354401,20.0960683 5.90431875,21.2113594 4.52860437,21.2113594 C3.15086241,21.2113594 2.03163715,20.0980869 2.03163715,18.7254209 Z M35.1542165,10.5045648 C35.1542165,9.13593614 36.2734418,8.01963573 37.6532113,8.01963573 C39.0258843,8.01963573 40.1471372,9.13391751 40.1471372,10.5045648 C40.1471372,11.8752122 39.0279119,12.9905033 37.6532113,12.9905033 C36.2744556,12.9905033 35.1542165,11.8742029 35.1542165,10.5045648 Z M16.8035857,10.5045648 C16.8035857,9.13593614 17.922811,8.01963573 19.2985254,8.01963573 C20.6752535,8.01963573 21.7965064,9.13391751 21.7965064,10.5045648 C21.7965064,11.8752122 20.6772811,12.9905033 19.2985254,12.9905033 C17.9238248,12.9905033 16.8035857,11.8742029 16.8035857,10.5045648 Z M42.0145402,47.9813736 L15.288982,47.9813736 L13.1873933,41.4945176 L43.9965016,41.4945176 L42.0145402,47.9813736 Z M44.5054247,39.8301601 L44.5054247,39.4748819 L12.5324843,39.4748819 L7.99171441,25.4555214 L16.841096,33.71675 C17.1219161,33.9811901 17.5335152,34.0639538 17.8913835,33.9246685 C18.2512793,33.7884112 18.504727,33.4613938 18.5442649,33.0788641 L20.0842134,17.4587329 L27.7089355,31.6082947 C27.8873627,31.9353122 28.2695619,32.1543332 28.6061405,32.1391935 C28.9812432,32.1381842 29.3239045,31.9312749 29.4992904,31.6022388 L37.1402331,17.2144791 L39.47398,33.1263018 C39.5307522,33.5078222 39.7983931,33.8227279 40.1684268,33.9428362 C40.5354191,34.0609258 40.9419493,33.9589852 41.2085763,33.6804147 L48.7988295,25.7946506 L44.5054247,39.8301601 Z M53.4795025,21.2113594 C52.104802,21.2113594 50.9835491,20.0970776 50.9835491,18.7254209 C50.9835491,17.3567922 52.1027744,16.2415011 53.4795025,16.2415011 C54.8562307,16.2415011 55.975456,17.3557829 55.975456,18.7254209 C55.975456,20.0980869 54.8542031,21.2113594 53.4795025,21.2113594 Z" id="Shape"></path>
</svg>