<svg width="53px" height="53px" viewBox="0 0 53 53" version="1.1" xmlns="http://www.w3.org/2000/svg">
    <path d="M49.4666667,36.3541667 L49.4666667,9.47916667 C49.4666667,9.23654514 49.3792535,9.0265842 49.2044271,8.84928385 C49.0296007,8.67198351 48.8225694,8.58333333 48.5833333,8.58333333 L4.41666667,8.58333333 C4.17743056,8.58333333 3.97039931,8.67198351 3.79557292,8.84928385 C3.62074653,9.0265842 3.53333333,9.23654514 3.53333333,9.47916667 L3.53333333,36.3541667 C3.53333333,36.5967882 3.62074653,36.8067491 3.79557292,36.9840495 C3.97039931,37.1613498 4.17743056,37.25 4.41666667,37.25 L48.5833333,37.25 C48.8225694,37.25 49.0296007,37.1613498 49.2044271,36.9840495 C49.3792535,36.8067491 49.4666667,36.5967882 49.4666667,36.3541667 Z M53,9.47916667 L53,36.3541667 C53,37.5859375 52.5675347,38.640408 51.7026042,39.5175781 C50.8376736,40.3947483 49.7979167,40.8333333 48.5833333,40.8333333 L28.2666667,40.8333333 L28.2666667,44.4166667 L37.9833333,44.4166667 C38.2409722,44.4166667 38.4526042,44.500651 38.6182292,44.6686198 C38.7838542,44.8365885 38.8666667,45.0512153 38.8666667,45.3125 L38.8666667,47.1041667 C38.8666667,47.3654514 38.7838542,47.5800781 38.6182292,47.7480469 C38.4526042,47.9160156 38.2409722,48 37.9833333,48 L15.0166667,48 C14.7590278,48 14.5473958,47.9160156 14.3817708,47.7480469 C14.2161458,47.5800781 14.1333333,47.3654514 14.1333333,47.1041667 L14.1333333,45.3125 C14.1333333,45.0512153 14.2161458,44.8365885 14.3817708,44.6686198 C14.5473958,44.500651 14.7590278,44.4166667 15.0166667,44.4166667 L24.7333333,44.4166667 L24.7333333,40.8333333 L4.41666667,40.8333333 C3.20208333,40.8333333 2.16232639,40.3947483 1.29739583,39.5175781 C0.432465278,38.640408 0,37.5859375 0,36.3541667 L0,9.47916667 C0,8.24739583 0.432465278,7.19292535 1.29739583,6.31575521 C2.16232639,5.43858507 3.20208333,5 4.41666667,5 L48.5833333,5 C49.7979167,5 50.8376736,5.43858507 51.7026042,6.31575521 C52.5675347,7.19292535 53,8.24739583 53,9.47916667 Z" id="Shape"></path>
</svg>