<svg width="58px" height="58px" viewBox="0 0 58 58" version="1.1" xmlns="http://www.w3.org/2000/svg">
    <path d="M46.2011429,22.0797407 C46.3865357,21.0282222 46.4963214,19.9498519 46.4963214,18.8414074 C46.4963214,8.83855556 38.6476786,0.698148148 29.0010357,0.698148148 C19.3543929,0.698148148 11.5047143,8.83640741 11.5047143,18.8414074 C11.5047143,19.9477037 11.6155357,21.0260741 11.7998929,22.0797407 C5.03046429,24.5877037 0.16675,31.2813333 0.16675,39.1532222 C0.16675,49.1571481 8.01435714,57.2986296 17.6620357,57.2986296 C21.9871786,57.2986296 25.9446429,55.6531481 29.0010357,52.9432593 C32.0584643,55.651 36.0148929,57.2986296 40.3400357,57.2986296 C49.9856429,57.2986296 57.8353214,49.1603704 57.8353214,39.1532222 C57.8353214,31.2845556 52.9685,24.5866296 46.2011429,22.0797407 Z M13.5668214,18.8424815 C13.5668214,10.0168148 20.4905714,2.83877778 29,2.83877778 C37.5094286,2.83877778 44.4321429,10.018963 44.4321429,18.8424815 C44.4321429,19.7425556 44.3430714,20.6136296 44.2042857,21.4718148 C42.9583214,21.1807407 41.6678214,21.009963 40.3379643,21.009963 C36.0138571,21.009963 32.0563929,22.6554444 29,25.3642593 C25.9425714,22.6565185 21.9861429,21.009963 17.661,21.009963 C16.3301071,21.009963 15.0396071,21.1785926 13.7936429,21.4718148 C13.6558929,20.6147037 13.5668214,19.7414815 13.5668214,18.8424815 Z M33.0941786,39.1542963 C33.0941786,43.3292222 31.53025,47.1217778 29,49.9734444 C26.4676786,47.1217778 24.9058214,43.3270741 24.9058214,39.1542963 C24.9058214,38.2563704 24.9948929,37.3842222 25.1326429,36.524963 C26.3786071,36.816037 27.6691071,36.9868148 29,36.9868148 C30.3298571,36.9868148 31.6193214,36.8192593 32.8652857,36.524963 C33.0051071,37.3820741 33.0941786,38.2563704 33.0941786,39.1542963 Z M29,34.8472593 C27.8275714,34.8472593 26.6903571,34.699037 25.5904286,34.4401852 C26.2771071,32.1352222 27.4619643,30.0654815 29,28.3319259 C30.5359643,30.0633333 31.7239286,32.1373704 32.4095714,34.4401852 C31.3106786,34.699037 30.1745,34.8472593 29,34.8472593 Z M23.6173929,33.8247407 C19.1576071,32.0965556 15.6641429,28.3007778 14.2514286,23.5565926 C15.3492857,23.2977407 16.4885714,23.1495185 17.661,23.1495185 C21.4071786,23.1495185 24.8436786,24.5415185 27.5189286,26.8507778 C25.7561429,28.826 24.3993571,31.1921852 23.6173929,33.8247407 Z M30.4831429,26.8518519 C33.1583929,24.5425926 36.5948929,23.1505926 40.3421071,23.1505926 C41.5155714,23.1505926 42.65175,23.2988148 43.7516786,23.5576667 C42.3389643,28.3007778 38.8444643,32.0954815 34.3857143,33.8247407 C33.5996071,31.1921852 32.2448929,28.826 30.4831429,26.8518519 Z M2.22782143,39.1542963 C2.22782143,32.2931111 6.41832143,26.4458519 12.2783929,24.1741852 C13.9034286,29.6433704 17.9665357,33.9998148 23.1399286,35.9181111 C22.9555714,36.9696296 22.84475,38.048 22.84475,39.1553704 C22.84475,43.9038519 24.62825,48.2194815 27.5178929,51.4578148 C24.8426429,53.7681481 21.4071786,55.1612222 17.6599643,55.1612222 C9.15053571,55.1590741 2.22782143,47.981037 2.22782143,39.1542963 Z M40.339,55.1590741 C36.5938571,55.1590741 33.1573571,53.766 30.4810714,51.4556667 C33.37175,48.2184074 35.1542143,43.9049259 35.1542143,39.1542963 C35.1542143,38.0490741 35.0444286,36.9696296 34.8590357,35.915963 C40.0324286,33.9998148 44.0965714,29.6433704 45.7205714,24.1731111 C51.5806429,26.4437037 55.7721786,32.2941852 55.7721786,39.1532222 C55.7732143,47.981037 48.8494643,55.1590741 40.339,55.1590741 Z" id="Shape"></path>
</svg>