<svg width="58px" height="58px" viewBox="0 0 58 58" version="1.1" xmlns="http://www.w3.org/2000/svg">
    <g id="view-more-fill" transform="translate(0.000000, 21.000000)">
        <path d="M7.666,0.832 C3.701,0.832 0.476,4.053 0.476,8.012 C0.476,11.977 3.704,15.2 7.666,15.2 C11.628,15.2 14.854,11.974 14.854,8.012 C14.855,4.052 11.629,0.832 7.666,0.832 Z" id="Shape"></path>
        <path d="M29.005,0.801 C25.04,0.801 21.816,4.028 21.816,7.989 C21.816,11.954 25.043,15.179 29.005,15.179 C32.967,15.179 36.193,11.952 36.193,7.989 C36.194,4.026 32.969,0.801 29.005,0.801 Z" id="Shape"></path>
        <path d="M50.344,0.832 C46.379,0.832 43.155,4.058 43.155,8.02 C43.155,11.979 46.382,15.2 50.344,15.2 C54.303,15.2 57.525,11.979 57.525,8.02 C57.525,4.055 54.303,0.832 50.344,0.832 Z" id="Shape"></path>
    </g>
</svg>